shantell_organic--light.ufo
<glyph name="exclam" format="2">
	<unicode hex="0021"/>
	<advance width="265"/>
	<outline>
		<contour>
			<point x="167" y="820.7869042068" type="curve" smooth="yes"/>
			<point x="167" y="757.7869042068"/>
			<point x="155" y="721.7869042068"/>
			<point x="155" y="604.7869042068" type="curve" smooth="yes"/>
			<point x="155" y="500.7869042068"/>
			<point x="165" y="486.7869042068"/>
			<point x="165" y="432.7869042068" type="curve" smooth="yes"/>
			<point x="165" y="397.7869042068"/>
			<point x="147" y="387.7869042068"/>
			<point x="134" y="387.7869042068" type="curve" smooth="yes"/>
			<point x="119" y="387.7869042068"/>
			<point x="107" y="401.7869042068"/>
			<point x="103" y="423.7869042068" type="curve" smooth="yes"/>
			<point x="90" y="501.7869042068"/>
			<point x="87" y="555.7869042068"/>
			<point x="87" y="618.7869042068" type="curve" smooth="yes"/>
			<point x="87" y="735.7869042068"/>
			<point x="99" y="781.7869042068"/>
			<point x="99" y="842.7869042068" type="curve" smooth="yes"/>
			<point x="99" y="861.7869042068"/>
			<point x="109" y="879.7869042068"/>
			<point x="127" y="879.7869042068" type="curve" smooth="yes"/>
			<point x="147" y="879.7869042068"/>
			<point x="167" y="858.7869042068"/>
		</contour>
		<contour>
			<point x="145" y="157.7869042068" type="curve" smooth="yes"/>
			<point x="181" y="157.7869042068"/>
			<point x="195" y="183.7869042068"/>
			<point x="195" y="208.7869042068" type="curve" smooth="yes"/>
			<point x="195" y="245.7869042068"/>
			<point x="174" y="280.7869042068"/>
			<point x="120" y="280.7869042068" type="curve" smooth="yes"/>
			<point x="93" y="280.7869042068"/>
			<point x="70" y="258.7869042068"/>
			<point x="70" y="228.7869042068" type="curve" smooth="yes"/>
			<point x="70" y="183.7869042068"/>
			<point x="104" y="157.7869042068"/>
		</contour>
	</outline>
</glyph>
<glyph name="quotedbl" format="2">
	<unicode hex="0022"/>
	<advance width="419"/>
	<outline>
		<contour>
			<point x="91" y="263.6921149299" type="curve" smooth="yes"/>
			<point x="106" y="263.6921149299"/>
			<point x="114" y="273.6921149299"/>
			<point x="119" y="289.6921149299" type="curve" smooth="yes"/>
			<point x="141" y="354.6921149299"/>
			<point x="157" y="448.6921149299"/>
			<point x="140" y="528.6921149299" type="curve" smooth="yes"/>
			<point x="137" y="544.6921149299"/>
			<point x="122" y="555.6921149299"/>
			<point x="106" y="555.6921149299" type="curve" smooth="yes"/>
			<point x="83" y="555.6921149299"/>
			<point x="68" y="536.6921149299"/>
			<point x="73" y="515.6921149299" type="curve" smooth="yes"/>
			<point x="88" y="445.6921149299"/>
			<point x="73" y="372.6921149299"/>
			<point x="58" y="318.6921149299" type="curve" smooth="yes"/>
			<point x="47" y="281.6921149299"/>
			<point x="70" y="263.6921149299"/>
		</contour>
		<contour>
			<point x="298" y="263.6921149299" type="curve" smooth="yes"/>
			<point x="313" y="263.6921149299"/>
			<point x="325" y="273.6921149299"/>
			<point x="329" y="289.6921149299" type="curve" smooth="yes"/>
			<point x="347" y="356.6921149299"/>
			<point x="358" y="443.6921149299"/>
			<point x="346" y="527.6921149299" type="curve" smooth="yes"/>
			<point x="344" y="544.6921149299"/>
			<point x="329" y="555.6921149299"/>
			<point x="313" y="555.6921149299" type="curve" smooth="yes"/>
			<point x="290" y="555.6921149299"/>
			<point x="278" y="536.6921149299"/>
			<point x="280" y="515.6921149299" type="curve" smooth="yes"/>
			<point x="287.3261234214" y="442.4308807154"/>
			<point x="276" y="368.6921149299"/>
			<point x="263" y="309.6921149299" type="curve" smooth="yes"/>
			<point x="256" y="277.6921149299"/>
			<point x="275.7272727273" y="263.6921149299"/>
		</contour>
	</outline>
</glyph>
<glyph name="quotesingle" format="2">
	<unicode hex="0027"/>
	<advance width="259"/>
	<outline>
		<contour>
			<point x="118" y="578.3412550613" type="curve" smooth="yes"/>
			<point x="133.0769230769" y="578.3412550613"/>
			<point x="141" y="588.3412550613"/>
			<point x="146" y="604.3412550613" type="curve" smooth="yes"/>
			<point x="168" y="669.3412550613"/>
			<point x="184" y="763.3412550613"/>
			<point x="167" y="843.3412550613" type="curve" smooth="yes"/>
			<point x="164" y="859.3412550613"/>
			<point x="149" y="870.3412550613"/>
			<point x="133" y="870.3412550613" type="curve" smooth="yes"/>
			<point x="110" y="870.3412550613"/>
			<point x="95.2941176471" y="851.5177256495"/>
			<point x="100" y="830.3412550613" type="curve" smooth="yes"/>
			<point x="115" y="760.3412550613"/>
			<point x="100" y="687.3412550613"/>
			<point x="85" y="633.3412550613" type="curve" smooth="yes"/>
			<point x="74.0496989038" y="596.5084241015"/>
			<point x="97.2571428571" y="578.3412550613"/>
		</contour>
	</outline>
</glyph>
<glyph name="parenright" format="2">
	<unicode hex="0029"/>
	<advance width="387"/>
	<outline>
		<contour>
			<point x="54" y="-334.5009428062" type="curve" smooth="yes"/>
			<point x="177" y="-237.5009428062"/>
			<point x="259" y="-75.5009428062"/>
			<point x="259" y="109.4990571938" type="curve" smooth="yes"/>
			<point x="259" y="349.4990571938"/>
			<point x="163" y="519.4990571938"/>
			<point x="61" y="591.4990571938" type="curve" smooth="yes"/>
			<point x="35" y="609.4990571938"/>
			<point x="30" y="620.4990571938"/>
			<point x="30" y="631.4990571938" type="curve" smooth="yes"/>
			<point x="30" y="650.4990571938"/>
			<point x="48" y="666.4990571938"/>
			<point x="62" y="666.4990571938" type="curve" smooth="yes"/>
			<point x="72" y="666.4990571938"/>
			<point x="79" y="664.4990571938"/>
			<point x="104" y="647.4990571938" type="curve" smooth="yes"/>
			<point x="217" y="567.4990571938"/>
			<point x="329" y="379.4990571938"/>
			<point x="329" y="109.4990571938" type="curve" smooth="yes"/>
			<point x="329" y="-97.5009428062"/>
			<point x="237" y="-279.5009428062"/>
			<point x="101" y="-386.5009428062" type="curve" smooth="yes"/>
			<point x="83" y="-400.5009428062"/>
			<point x="75" y="-403.5009428062"/>
			<point x="68" y="-403.5009428062" type="curve" smooth="yes"/>
			<point x="47" y="-403.5009428062"/>
			<point x="33" y="-385.5009428062"/>
			<point x="33" y="-368.5009428062" type="curve" smooth="yes"/>
			<point x="33" y="-357.5009428062"/>
			<point x="38" y="-347.5009428062"/>
		</contour>
	</outline>
</glyph>
<glyph name="comma" format="2">
	<unicode hex="002C"/>
	<advance width="240"/>
	<outline>
		<contour>
			<point x="159" y="199.3466890373"/>
			<point x="139" y="216.3466890373"/>
			<point x="104" y="216.3466890373" type="curve" smooth="yes"/>
			<point x="83" y="216.3466890373"/>
			<point x="70" y="199.3466890373"/>
			<point x="70" y="165.3466890373" type="curve" smooth="yes"/>
			<point x="70" y="92.3466890373"/>
			<point x="57" y="39.3466890373"/>
			<point x="28" y="-14.6533109627" type="curve" smooth="yes"/>
			<point x="13" y="-43.6533109627"/>
			<point x="6" y="-61.6533109627"/>
			<point x="6" y="-74.6533109627" type="curve" smooth="yes"/>
			<point x="6" y="-88.6533109627"/>
			<point x="16" y="-98.6533109627"/>
			<point x="31" y="-98.6533109627" type="curve" smooth="yes"/>
			<point x="49" y="-98.6533109627"/>
			<point x="73" y="-86.6533109627"/>
			<point x="88" y="-66.6533109627" type="curve" smooth="yes"/>
			<point x="132" y="-3.6533109627"/>
			<point x="159" y="91.3466890373"/>
			<point x="159" y="152.3466890373" type="curve" smooth="yes"/>
		</contour>
	</outline>
</glyph>
<glyph name="hyphen" format="2">
	<unicode hex="002D"/>
	<advance width="471"/>
	<outline>
		<contour>
			<point x="118" y="274.7329734365" type="curve" smooth="yes"/>
			<point x="152.718875502" y="274.7329734365"/>
			<point x="209.2610441767" y="294.7329734365"/>
			<point x="365" y="294.7329734365" type="curve" smooth="yes"/>
			<point x="397" y="294.7329734365"/>
			<point x="416" y="305.7329734365"/>
			<point x="416" y="323.7329734365" type="curve" smooth="yes"/>
			<point x="416" y="336.7329734365"/>
			<point x="394" y="357.7329734365"/>
			<point x="332" y="357.7329734365" type="curve" smooth="yes"/>
			<point x="249.6720647773" y="357.7329734365"/>
			<point x="174.29845576" y="344.6452804065"/>
			<point x="87" y="333.7329734365" type="curve" smooth="yes"/>
			<point x="62" y="330.7329734365"/>
			<point x="55" y="315.7329734365"/>
			<point x="55" y="304.7329734365" type="curve" smooth="yes"/>
			<point x="55" y="289.7329734365"/>
			<point x="77" y="274.7329734365"/>
		</contour>
	</outline>
</glyph>
<glyph name="period" format="2">
	<unicode hex="002E"/>
	<advance width="320"/>
	<outline>
		<contour>
			<point x="176" y="153.8278323732" type="curve" smooth="yes"/>
			<point x="210" y="153.8278323732"/>
			<point x="223" y="179.8278323732"/>
			<point x="223" y="204.8278323732" type="curve" smooth="yes"/>
			<point x="223" y="239.8278323732"/>
			<point x="194" y="282.8278323732"/>
			<point x="146" y="282.8278323732" type="curve" smooth="yes"/>
			<point x="120" y="282.8278323732"/>
			<point x="98" y="262.8278323732"/>
			<point x="98" y="234.8278323732" type="curve" smooth="yes"/>
			<point x="98" y="193.8278323732"/>
			<point x="134" y="153.8278323732"/>
		</contour>
	</outline>
</glyph>
<glyph name="slash" format="2">
	<unicode hex="002F"/>
	<advance width="330"/>
	<outline>
		<contour>
			<point x="412" y="629.2883678253" type="curve" smooth="yes"/>
			<point x="228.3282213789" y="323.834214249"/>
			<point x="138" y="56.2883678253"/>
			<point x="117" y="-219.7116321747" type="curve" smooth="yes"/>
			<point x="115" y="-248.7116321747"/>
			<point x="103" y="-261.7116321747"/>
			<point x="85" y="-261.7116321747" type="curve" smooth="yes"/>
			<point x="62" y="-261.7116321747"/>
			<point x="45.9994436229" y="-244.7196996433"/>
			<point x="48" y="-215.7116321747" type="curve" smooth="yes"/>
			<point x="70" y="82.2883678253"/>
			<point x="169" y="369.2883678253"/>
			<point x="342" y="661.2883678253" type="curve" smooth="yes"/>
			<point x="361" y="693.2883678253"/>
			<point x="374" y="706.2883678253"/>
			<point x="392" y="706.2883678253" type="curve" smooth="yes"/>
			<point x="415" y="706.2883678253"/>
			<point x="440" y="676.2883678253"/>
		</contour>
	</outline>
</glyph>
<glyph name="one" format="2">
	<unicode hex="0031"/>
	<advance width="700"/>
	<image fileName="zero.png" xScale="2.3662938837" yScale="2.3662938837" xOffset="-35.8248343698" yOffset="-212.644631698" color="0,0,0,0.16492"/>
	<outline>
		<contour>
			<point x="91" y="175.0374246001"/>
			<point x="106" y="183.0374246001"/>
			<point x="141" y="183.0374246001" type="curve" smooth="yes"/>
			<point x="252" y="183.0374246001"/>
			<point x="417" y="192.0374246001"/>
			<point x="545" y="192.0374246001" type="curve" smooth="yes"/>
			<point x="585.7272727273" y="192.0374246001"/>
			<point x="630" y="181.0374246001"/>
			<point x="629" y="153.0374246001" type="curve" smooth="yes"/>
			<point x="628" y="138.0374246001"/>
			<point x="611.6935483871" y="126.0374246001"/>
			<point x="592" y="126.0374246001" type="curve" smooth="yes"/>
			<point x="476.087628866" y="126.0374246001"/>
			<point x="308" y="116.0374246001"/>
			<point x="194" y="116.0374246001" type="curve" smooth="yes"/>
			<point x="125" y="116.0374246001"/>
			<point x="91" y="132.0374246001"/>
			<point x="91" y="156.0374246001" type="curve" smooth="yes"/>
		</contour>
		<contour>
			<point x="136" y="738.0374246001" type="curve" smooth="yes"/>
			<point x="215" y="738.0374246001"/>
			<point x="305" y="762.0374246001"/>
			<point x="396" y="817.0374246001" type="curve" smooth="yes"/>
			<point x="414" y="828.0374246001"/>
			<point x="430" y="833.0374246001"/>
			<point x="443" y="833.0374246001" type="curve" smooth="yes"/>
			<point x="468" y="833.0374246001"/>
			<point x="483" y="816.0374246001"/>
			<point x="483" y="789.0374246001" type="curve" smooth="yes"/>
			<point x="483" y="748.0374246001"/>
			<point x="419" y="530.0374246001"/>
			<point x="419" y="187.0374246001" type="curve" smooth="yes"/>
			<point x="419" y="169.0374246001"/>
			<point x="408" y="154.0374246001"/>
			<point x="395" y="154.0374246001" type="curve" smooth="yes"/>
			<point x="372" y="154.0374246001"/>
			<point x="352" y="173.0374246001"/>
			<point x="352" y="195.0374246001" type="curve" smooth="yes"/>
			<point x="352" y="378.0374246001"/>
			<point x="379" y="601.0374246001"/>
			<point x="409" y="777.0374246001" type="curve"/>
			<point x="430" y="763.0374246001" type="line"/>
			<point x="339" y="704.0374246001"/>
			<point x="245" y="673.0374246001"/>
			<point x="151" y="673.0374246001" type="curve" smooth="yes"/>
			<point x="127" y="673.0374246001"/>
			<point x="107" y="686.0374246001"/>
			<point x="107" y="712.0374246001" type="curve" smooth="yes"/>
			<point x="107" y="728.0374246001"/>
			<point x="118" y="738.0374246001"/>
		</contour>
	</outline>
</glyph>
<glyph name="two" format="2">
	<unicode hex="0032"/>
	<advance width="700"/>
	<image fileName="zero.png" xScale="2.3662938837" yScale="2.3662938837" xOffset="-763.8248343698" yOffset="-212.644631698" color="0,0,0,0.16492"/>
	<outline>
		<contour>
			<point x="143" y="617.2697999941" type="curve" smooth="yes"/>
			<point x="202" y="662.2697999941"/>
			<point x="289" y="698.2697999941"/>
			<point x="378" y="698.2697999941" type="curve" smooth="yes"/>
			<point x="524" y="698.2697999941"/>
			<point x="580" y="614.6632426171"/>
			<point x="580" y="494.2697999941" type="curve" smooth="yes"/>
			<point x="580" y="352.8096772947"/>
			<point x="503.3888829756" y="149.7329219595"/>
			<point x="152" y="-54.7302000059" type="curve"/>
			<point x="140" y="-28.7302000059" type="line"/>
			<point x="159" y="-38.7302000059"/>
			<point x="176" y="-40.7302000059"/>
			<point x="195" y="-40.7302000059" type="curve" smooth="yes"/>
			<point x="280.7647058824" y="-40.7302000059"/>
			<point x="409.9411764706" y="-18.7302000059"/>
			<point x="555" y="-18.7302000059" type="curve" smooth="yes"/>
			<point x="611" y="-18.7302000059"/>
			<point x="624" y="-41.7302000059"/>
			<point x="624" y="-58.7302000059" type="curve" smooth="yes"/>
			<point x="624" y="-76.7302000059"/>
			<point x="611" y="-84.7302000059"/>
			<point x="579" y="-84.7302000059" type="curve" smooth="yes"/>
			<point x="378.6739130435" y="-84.7302000059"/>
			<point x="292.2173913043" y="-104.7302000059"/>
			<point x="191" y="-104.7302000059" type="curve" smooth="yes"/>
			<point x="132" y="-104.7302000059"/>
			<point x="100" y="-84.7302000059"/>
			<point x="100" y="-40.7302000059" type="curve" smooth="yes"/>
			<point x="100" y="-23.7302000059"/>
			<point x="109" y="-7.7302000059"/>
			<point x="123" y="0.2697999941" type="curve" smooth="yes"/>
			<point x="432.245355025" y="194.0635558098"/>
			<point x="513" y="362.2329336347"/>
			<point x="513" y="494.2697999941" type="curve" smooth="yes"/>
			<point x="513" y="580.4653307204"/>
			<point x="470" y="633.2697999941"/>
			<point x="378" y="633.2697999941" type="curve" smooth="yes"/>
			<point x="238" y="633.2697999941"/>
			<point x="182" y="553.2697999941"/>
			<point x="148" y="553.2697999941" type="curve" smooth="yes"/>
			<point x="130" y="553.2697999941"/>
			<point x="117" y="566.2697999941"/>
			<point x="117" y="581.2697999941" type="curve" smooth="yes"/>
			<point x="117" y="593.2697999941"/>
			<point x="125" y="603.2697999941"/>
		</contour>
	</outline>
</glyph>
<glyph name="three" format="2">
	<unicode hex="0033"/>
	<advance width="700"/>
	<image fileName="zero.png" xScale="2.3662938837" yScale="2.3662938837" xOffset="-2104.8248343698" yOffset="-212.644631698" color="0,0,0,0.16492"/>
	<outline>
		<contour>
			<point x="106" y="575.6768206699"/>
			<point x="228" y="649.6768206699"/>
			<point x="368" y="649.6768206699" type="curve" smooth="yes"/>
			<point x="503" y="649.6768206699"/>
			<point x="566" y="584.6768206699"/>
			<point x="566" y="484.6768206699" type="curve" smooth="yes"/>
			<point x="566" y="384.6768206699"/>
			<point x="515" y="280.6768206699"/>
			<point x="318" y="226.6768206699" type="curve"/>
			<point x="319" y="243.6768206699" type="line"/>
			<point x="531.7740545523" y="245.815253379"/>
			<point x="628" y="178.7720587651"/>
			<point x="628" y="55.6768206699" type="curve" smooth="yes"/>
			<point x="628" y="-90.6194756264"/>
			<point x="505.0962199313" y="-194.3231793301"/>
			<point x="317" y="-194.3231793301" type="curve" smooth="yes"/>
			<point x="183" y="-194.3231793301"/>
			<point x="112" y="-138.3231793301"/>
			<point x="112" y="-100.3231793301" type="curve" smooth="yes"/>
			<point x="112" y="-81.3231793301"/>
			<point x="123" y="-67.3231793301"/>
			<point x="139" y="-67.3231793301" type="curve" smooth="yes"/>
			<point x="173" y="-67.3231793301"/>
			<point x="174" y="-127.3231793301"/>
			<point x="304" y="-127.3231793301" type="curve" smooth="yes"/>
			<point x="453" y="-127.3231793301"/>
			<point x="561" y="-54.3231793301"/>
			<point x="561" y="55.6768206699" type="curve" smooth="yes"/>
			<point x="561" y="159.6768206699"/>
			<point x="450.4300548999" y="189.5927761486"/>
			<point x="303" y="190.6768206699" type="curve" smooth="yes"/>
			<point x="270" y="190.6768206699"/>
			<point x="251" y="213.6768206699"/>
			<point x="251" y="234.6768206699" type="curve" smooth="yes"/>
			<point x="251" y="249.6768206699"/>
			<point x="260" y="263.6768206699"/>
			<point x="289" y="270.6768206699" type="curve" smooth="yes"/>
			<point x="408" y="300.6768206699"/>
			<point x="499" y="367.6768206699"/>
			<point x="499" y="484.6768206699" type="curve" smooth="yes"/>
			<point x="499" y="570.6768206699"/>
			<point x="430.9212598425" y="584.6768206699"/>
			<point x="368" y="584.6768206699" type="curve" smooth="yes"/>
			<point x="197.9827586207" y="584.6768206699"/>
			<point x="175.3793103448" y="510.6768206699"/>
			<point x="140" y="510.6768206699" type="curve" smooth="yes"/>
			<point x="116" y="510.6768206699"/>
			<point x="106" y="521.6768206699"/>
			<point x="106" y="537.6768206699" type="curve" smooth="yes"/>
		</contour>
	</outline>
</glyph>
<glyph name="four" format="2">
	<unicode hex="0034"/>
	<advance width="700"/>
	<image fileName="zero.png" xScale="2.3662938837" yScale="2.3662938837" xOffset="-2868.8248343698" yOffset="-192.644631698" color="0,0,0,0.16492"/>
	<outline>
		<contour>
			<point x="408" y="23.3406474934" type="curve" smooth="yes"/>
			<point x="408" y="182.3406474934"/>
			<point x="455" y="339.3406474934"/>
			<point x="455" y="534.3406474934" type="curve" smooth="yes"/>
			<point x="455" y="587.3406474934"/>
			<point x="450" y="623.3406474934"/>
			<point x="440" y="653.3406474934" type="curve"/>
			<point x="468" y="650.3406474934" type="line"/>
			<point x="283.9126237878" y="548.7751985488"/>
			<point x="95.2290584362" y="325.3211783433"/>
			<point x="38" y="80.3406474934" type="curve"/>
			<point x="14" y="118.3406474934" type="line"/>
			<point x="49" y="103.3406474934"/>
			<point x="56" y="102.3406474934"/>
			<point x="75" y="102.3406474934" type="curve" smooth="yes"/>
			<point x="253.0511508951" y="102.3406474934"/>
			<point x="398.9226069246" y="153.3406474934"/>
			<point x="641" y="153.3406474934" type="curve" smooth="yes"/>
			<point x="688" y="153.3406474934"/>
			<point x="714" y="137.3406474934"/>
			<point x="714" y="115.3406474934" type="curve" smooth="yes"/>
			<point x="714" y="99.3406474934"/>
			<point x="700" y="88.3406474934"/>
			<point x="667" y="88.3406474934" type="curve" smooth="yes"/>
			<point x="414.3683206107" y="88.3406474934"/>
			<point x="268.608490566" y="36.3406474934"/>
			<point x="68" y="36.3406474934" type="curve" smooth="yes"/>
			<point x="16" y="36.3406474934"/>
			<point x="-17" y="65.3406474934"/>
			<point x="-17" y="108.3406474934" type="curve" smooth="yes"/>
			<point x="-17" y="133.3406474934"/>
			<point x="-11" y="152.3406474934"/>
			<point x="6" y="195.3406474934" type="curve" smooth="yes"/>
			<point x="117.0077786254" y="484.9700335433"/>
			<point x="355.7083333333" y="706.3406474934"/>
			<point x="468" y="706.3406474934" type="curve" smooth="yes"/>
			<point x="508" y="706.3406474934"/>
			<point x="522" y="654.3406474934"/>
			<point x="522" y="536.3406474934" type="curve" smooth="yes"/>
			<point x="522" y="349.3406474934"/>
			<point x="475" y="211.3406474934"/>
			<point x="475" y="14.3406474934" type="curve" smooth="yes"/>
			<point x="475" y="-86.6593525066"/>
			<point x="485" y="-129.6593525066"/>
			<point x="485" y="-185.6593525066" type="curve" smooth="yes"/>
			<point x="485" y="-213.6593525066"/>
			<point x="473" y="-229.6593525066"/>
			<point x="455" y="-229.6593525066" type="curve" smooth="yes"/>
			<point x="421" y="-229.6593525066"/>
			<point x="408" y="-154.6593525066"/>
		</contour>
	</outline>
</glyph>
<glyph name="five" format="2">
	<unicode hex="0035"/>
	<advance width="700"/>
	<image fileName="zero.png" xScale="2.3662938837" yScale="2.3662938837" xOffset="-5227.8248343698" yOffset="-192.644631698" color="0,0,0,0.16492"/>
	<outline>
		<contour>
			<point x="551" y="592.2886789937" type="curve" smooth="yes"/>
			<point x="407" y="592.2886789937"/>
			<point x="341" y="558.2886789937"/>
			<point x="170" y="561.2886789937" type="curve"/>
			<point x="236" y="592.2886789937" type="line"/>
			<point x="210.9361386943" y="544.3404225828"/>
			<point x="184" y="450.9383965078"/>
			<point x="184" y="395.2886789937" type="curve" smooth="yes"/>
			<point x="184" y="363.2886789937"/>
			<point x="189.6640294275" y="358.2379475748"/>
			<point x="381" y="318.2886789937" type="curve" smooth="yes"/>
			<point x="567.3097708656" y="279.6752549801"/>
			<point x="611" y="214.2827618339"/>
			<point x="611" y="129.2886789937" type="curve" smooth="yes"/>
			<point x="611" y="-14.6792925365"/>
			<point x="469" y="-131.7113210063"/>
			<point x="252" y="-131.7113210063" type="curve" smooth="yes"/>
			<point x="158" y="-131.7113210063"/>
			<point x="115" y="-85.3113210063"/>
			<point x="115" y="-15.7113210063" type="curve" smooth="yes"/>
			<point x="115" y="5.2886789937"/>
			<point x="124" y="21.2886789937"/>
			<point x="142" y="21.2886789937" type="curve" smooth="yes"/>
			<point x="174" y="21.2886789937"/>
			<point x="167" y="-66.7113210063"/>
			<point x="239" y="-66.7113210063" type="curve" smooth="yes"/>
			<point x="411" y="-66.7113210063"/>
			<point x="544" y="4.835848805"/>
			<point x="544" y="125.2886789937" type="curve" smooth="yes"/>
			<point x="544" y="201.5930268198"/>
			<point x="459.6777093799" y="236.0789403468"/>
			<point x="345" y="260.2886789937" type="curve" smooth="yes"/>
			<point x="132.0147067517" y="304.1385923095"/>
			<point x="117" y="320.2886789937"/>
			<point x="117" y="389.2886789937" type="curve" smooth="yes"/>
			<point x="117" y="430.9722232975"/>
			<point x="123.5498431195" y="489.1214893922"/>
			<point x="147" y="567.2886789937" type="curve" smooth="yes"/>
			<point x="160" y="609.2886789937"/>
			<point x="183" y="626.2886789937"/>
			<point x="210" y="626.2886789937" type="curve" smooth="yes"/>
			<point x="358" y="623.2886789937"/>
			<point x="414" y="657.2886789937"/>
			<point x="525" y="657.2886789937" type="curve" smooth="yes"/>
			<point x="572" y="657.2886789937"/>
			<point x="596" y="637.2886789937"/>
			<point x="595" y="616.2886789937" type="curve" smooth="yes"/>
			<point x="594" y="601.2886789937"/>
			<point x="577" y="592.2886789937"/>
		</contour>
	</outline>
</glyph>
<glyph name="six" format="2">
	<unicode hex="0036"/>
	<advance width="700"/>
	<image fileName="zero.png" xScale="2.3662938837" yScale="2.3662938837" xOffset="-5902.8248343698" yOffset="-192.644631698" color="0,0,0,0.16492"/>
	<outline>
		<contour>
			<point x="479" y="545.5006684114" type="curve" smooth="yes"/>
			<point x="258.7868858067" y="383.8548718227"/>
			<point x="132" y="216.2113283099"/>
			<point x="132" y="46.5006684114" type="curve" smooth="yes"/>
			<point x="132" y="-125.0282891176"/>
			<point x="224.4422110553" y="-182.4993315886"/>
			<point x="351" y="-182.4993315886" type="curve" smooth="yes"/>
			<point x="461.2040816327" y="-182.4993315886"/>
			<point x="567" y="-131.2122945516"/>
			<point x="567" y="8.5006684114" type="curve" smooth="yes"/>
			<point x="567" y="80.9712566467"/>
			<point x="516.076142132" y="162.5006684114"/>
			<point x="358" y="162.5006684114" type="curve" smooth="yes"/>
			<point x="221.7333333333" y="162.5006684114"/>
			<point x="201" y="119.5006684114"/>
			<point x="162" y="119.5006684114" type="curve" smooth="yes"/>
			<point x="143" y="119.5006684114"/>
			<point x="138" y="127.1929761037"/>
			<point x="138" y="144.5006684114" type="curve" smooth="yes"/>
			<point x="138" y="175.5006684114"/>
			<point x="230" y="227.5006684114"/>
			<point x="362" y="227.5006684114" type="curve" smooth="yes"/>
			<point x="545" y="227.5006684114"/>
			<point x="635" y="126.0647709755"/>
			<point x="635" y="-2.4993315886" type="curve" smooth="yes"/>
			<point x="635" y="-124.0919241812"/>
			<point x="539" y="-247.4993315886"/>
			<point x="351" y="-247.4993315886" type="curve" smooth="yes"/>
			<point x="156" y="-247.4993315886"/>
			<point x="65" y="-130.4993315886"/>
			<point x="65" y="46.5006684114" type="curve" smooth="yes"/>
			<point x="65" y="228.5006684114"/>
			<point x="196.6010694016" y="420.0664904543"/>
			<point x="435" y="592.5006684114" type="curve" smooth="yes"/>
			<point x="468" y="615.5006684114"/>
			<point x="478" y="623.5006684114"/>
			<point x="496" y="623.5006684114" type="curve" smooth="yes"/>
			<point x="509" y="623.5006684114"/>
			<point x="518" y="613.5006684114"/>
			<point x="518" y="598.5006684114" type="curve" smooth="yes"/>
			<point x="518" y="577.5006684114"/>
			<point x="510" y="567.5006684114"/>
		</contour>
	</outline>
</glyph>
<glyph name="eight" format="2">
	<unicode hex="0038"/>
	<advance width="700"/>
	<image fileName="zero.png" xScale="2.3662938837" yScale="2.3662938837" xOffset="-7182.8248343698" yOffset="-192.644631698" color="0,0,0,0.16492"/>
	<outline>
		<contour>
			<point x="474" y="715.8398149841" type="curve" smooth="yes"/>
			<point x="289.6191411443" y="719.9600576401"/>
			<point x="200" y="683.9685278554"/>
			<point x="200" y="604.8398149841" type="curve" smooth="yes"/>
			<point x="200" y="566.7683864127"/>
			<point x="214.2833973437" y="531.3647912919"/>
			<point x="367" y="474.8398149841" type="curve" smooth="yes"/>
			<point x="541" y="410.8398149841"/>
			<point x="563" y="331.8398149841"/>
			<point x="563" y="259.8398149841" type="curve" smooth="yes"/>
			<point x="563" y="156.8398149841"/>
			<point x="489" y="57.8398149841"/>
			<point x="327" y="57.8398149841" type="curve" smooth="yes"/>
			<point x="181" y="57.8398149841"/>
			<point x="140" y="126.8398149841"/>
			<point x="141" y="208.8398149841" type="curve" smooth="yes"/>
			<point x="142" y="272.8398149841"/>
			<point x="164" y="342.8398149841"/>
			<point x="338" y="460.8398149841" type="curve" smooth="yes"/>
			<point x="422" y="517.8398149841"/>
			<point x="469" y="588.8398149841"/>
			<point x="479" y="689.8398149841" type="curve" smooth="yes"/>
			<point x="482" y="720.8398149841"/>
			<point x="489" y="732.8398149841"/>
			<point x="506" y="732.8398149841" type="curve" smooth="yes"/>
			<point x="526.2903225806" y="732.8398149841"/>
			<point x="543" y="713.8398149841"/>
			<point x="543" y="688.8398149841" type="curve" smooth="yes"/>
			<point x="543" y="611.8398149841"/>
			<point x="504" y="490.8398149841"/>
			<point x="384" y="410.8398149841" type="curve" smooth="yes"/>
			<point x="247.999470749" y="322.4891062006"/>
			<point x="208" y="259.8398149841"/>
			<point x="208" y="205.8398149841" type="curve" smooth="yes"/>
			<point x="208" y="171.8398149841"/>
			<point x="211.9669601116" y="135.3893748167"/>
			<point x="231" y="106.8398149841" type="curve"/>
			<point x="192" y="153.8398149841" type="line"/>
			<point x="222" y="132.8398149841"/>
			<point x="261" y="122.8398149841"/>
			<point x="309" y="122.8398149841" type="curve" smooth="yes"/>
			<point x="406" y="122.8398149841"/>
			<point x="496" y="168.8398149841"/>
			<point x="496" y="261.8398149841" type="curve" smooth="yes"/>
			<point x="496" y="322.8398149841"/>
			<point x="460" y="371.8398149841"/>
			<point x="343" y="413.8398149841" type="curve" smooth="yes"/>
			<point x="155.9937512054" y="479.4909448801"/>
			<point x="132.0492516021" y="537.4351819393"/>
			<point x="133" y="606.8398149841" type="curve" smooth="yes"/>
			<point x="135.1219291551" y="716.119166474"/>
			<point x="226.4931506849" y="780.8398149841"/>
			<point x="433" y="780.8398149841" type="curve" smooth="yes"/>
			<point x="483" y="780.8398149841"/>
			<point x="505" y="759.8398149841"/>
			<point x="505" y="738.8398149841" type="curve" smooth="yes"/>
			<point x="505" y="725.8398149841"/>
			<point x="490" y="714.8398149841"/>
		</contour>
	</outline>
</glyph>
<glyph name="semicolon" format="2">
	<unicode hex="003B"/>
	<advance width="320"/>
	<outline>
		<contour>
			<point x="166" y="444.2339781013" type="curve" smooth="yes"/>
			<point x="207" y="444.2339781013"/>
			<point x="223" y="470.2339781013"/>
			<point x="223" y="495.2339781013" type="curve" smooth="yes"/>
			<point x="223" y="530.2339781013"/>
			<point x="198" y="573.2339781013"/>
			<point x="156" y="573.2339781013" type="curve" smooth="yes"/>
			<point x="125" y="573.2339781013"/>
			<point x="98" y="549.2339781013"/>
			<point x="98" y="515.2339781013" type="curve" smooth="yes"/>
			<point x="98" y="479.2339781013"/>
			<point x="129" y="444.2339781013"/>
		</contour>
		<component base="comma" yOffset="77.2339781013"/>
	</outline>
</glyph>
<glyph name="question" format="2">
	<unicode hex="003F"/>
	<advance width="462"/>
	<outline>
		<contour>
			<point x="46" y="848.4808949608" type="curve" smooth="yes"/>
			<point x="89" y="870.4808949608"/>
			<point x="164" y="886.4808949608"/>
			<point x="219" y="886.4808949608" type="curve" smooth="yes"/>
			<point x="358" y="886.4808949608"/>
			<point x="417" y="822.4808949608"/>
			<point x="417" y="743.4808949608" type="curve" smooth="yes"/>
			<point x="417" y="693.4808949608"/>
			<point x="405" y="650.4808949608"/>
			<point x="314" y="586.4808949608" type="curve" smooth="yes"/>
			<point x="239" y="535.4808949608"/>
			<point x="231" y="516.4808949608"/>
			<point x="231" y="491.4808949608" type="curve" smooth="yes"/>
			<point x="231" y="447.4808949608"/>
			<point x="283" y="447.4808949608"/>
			<point x="283" y="408.4808949608" type="curve" smooth="yes"/>
			<point x="283" y="393.4808949608"/>
			<point x="272" y="382.4808949608"/>
			<point x="256" y="382.4808949608" type="curve" smooth="yes"/>
			<point x="210" y="382.4808949608"/>
			<point x="161" y="430.4808949608"/>
			<point x="161" y="487.4808949608" type="curve" smooth="yes"/>
			<point x="161" y="523.4808949608"/>
			<point x="165" y="562.4808949608"/>
			<point x="278" y="642.4808949608" type="curve" smooth="yes"/>
			<point x="338" y="686.4808949608"/>
			<point x="349" y="709.4808949608"/>
			<point x="349" y="743.4808949608" type="curve" smooth="yes"/>
			<point x="349" y="791.4808949608"/>
			<point x="312" y="818.4808949608"/>
			<point x="219" y="818.4808949608" type="curve" smooth="yes"/>
			<point x="132" y="818.4808949608"/>
			<point x="95" y="784.4808949608"/>
			<point x="62" y="784.4808949608" type="curve" smooth="yes"/>
			<point x="42" y="784.4808949608"/>
			<point x="28" y="799.4808949608"/>
			<point x="28" y="818.4808949608" type="curve" smooth="yes"/>
			<point x="28" y="830.4808949608"/>
			<point x="35" y="842.4808949608"/>
		</contour>
		<contour>
			<point x="250" y="156.4808949608" type="curve" smooth="yes"/>
			<point x="286" y="156.4808949608"/>
			<point x="300" y="182.4808949608"/>
			<point x="300" y="207.4808949608" type="curve" smooth="yes"/>
			<point x="300" y="244.4808949608"/>
			<point x="279" y="279.4808949608"/>
			<point x="225" y="279.4808949608" type="curve" smooth="yes"/>
			<point x="198" y="279.4808949608"/>
			<point x="175" y="257.4808949608"/>
			<point x="175" y="227.4808949608" type="curve" smooth="yes"/>
			<point x="175" y="182.4808949608"/>
			<point x="209" y="156.4808949608"/>
		</contour>
	</outline>
</glyph>
<glyph name="at" format="2">
	<unicode hex="0040"/>
	<advance width="848"/>
	<outline>
		<contour>
			<point x="498" y="220.5358497213" type="curve" smooth="yes"/>
			<point x="397" y="210.5358497213"/>
			<point x="346" y="154.5358497213"/>
			<point x="346" y="98.5358497213" type="curve" smooth="yes"/>
			<point x="346" y="83.5358497213"/>
			<point x="346" y="67.5358497213"/>
			<point x="363" y="27.5358497213" type="curve"/>
			<point x="325" y="70.5358497213" type="line"/>
			<point x="361" y="49.5358497213"/>
			<point x="375" y="46.5358497213"/>
			<point x="387" y="46.5358497213" type="curve" smooth="yes"/>
			<point x="417" y="46.5358497213"/>
			<point x="431" y="62.5358497213"/>
			<point x="449" y="107.5358497213" type="curve" smooth="yes"/>
			<point x="476" y="177.5358497213"/>
			<point x="498" y="188.5358497213"/>
			<point x="526" y="188.5358497213" type="curve" smooth="yes"/>
			<point x="555" y="188.5358497213"/>
			<point x="582" y="176.5358497213"/>
			<point x="607" y="122.5358497213" type="curve" smooth="yes"/>
			<point x="635" y="62.5358497213"/>
			<point x="638" y="59.5358497213"/>
			<point x="657" y="59.5358497213" type="curve" smooth="yes"/>
			<point x="698" y="59.5358497213"/>
			<point x="710" y="120.5358497213"/>
			<point x="710" y="169.5358497213" type="curve" smooth="yes"/>
			<point x="710" y="279.3446732507"/>
			<point x="647" y="431.5358497213"/>
			<point x="459" y="431.5358497213" type="curve" smooth="yes"/>
			<point x="294" y="431.5358497213"/>
			<point x="138" y="271.5358497213"/>
			<point x="138" y="110.5358497213" type="curve" smooth="yes"/>
			<point x="138" y="-68.4641502787"/>
			<point x="287" y="-154.4641502787"/>
			<point x="447" y="-154.4641502787" type="curve" smooth="yes"/>
			<point x="637" y="-154.4641502787"/>
			<point x="648" y="-99.4641502787"/>
			<point x="684" y="-99.4641502787" type="curve" smooth="yes"/>
			<point x="703" y="-99.4641502787"/>
			<point x="711" y="-112.4641502787"/>
			<point x="711" y="-132.4641502787" type="curve" smooth="yes"/>
			<point x="711" y="-147.4641502787"/>
			<point x="704" y="-160.4641502787"/>
			<point x="685" y="-174.4641502787" type="curve" smooth="yes"/>
			<point x="646" y="-203.4641502787"/>
			<point x="582" y="-222.4641502787"/>
			<point x="447" y="-222.4641502787" type="curve" smooth="yes"/>
			<point x="245" y="-222.4641502787"/>
			<point x="70" y="-108.4641502787"/>
			<point x="70" y="110.5358497213" type="curve"/>
			<point x="70" y="305.5358497213"/>
			<point x="258" y="499.5358497213"/>
			<point x="459" y="499.5358497213" type="curve" smooth="yes"/>
			<point x="693" y="499.5358497213"/>
			<point x="778" y="309.3005556037"/>
			<point x="778" y="169.5358497213" type="curve" smooth="yes"/>
			<point x="778" y="38.5358497213"/>
			<point x="715" y="-8.4641502787"/>
			<point x="657" y="-8.4641502787" type="curve" smooth="yes"/>
			<point x="547" y="-8.4641502787"/>
			<point x="570" y="110.5358497213"/>
			<point x="510" y="135.5358497213" type="curve"/>
			<point x="535" y="135.5358497213" type="line"/>
			<point x="499" y="98.5358497213"/>
			<point x="494" y="-19.4641502787"/>
			<point x="389" y="-19.4641502787" type="curve" smooth="yes"/>
			<point x="331" y="-19.4641502787"/>
			<point x="278" y="17.5358497213"/>
			<point x="278" y="98.5358497213" type="curve" smooth="yes"/>
			<point x="278" y="203.5358497213"/>
			<point x="390" y="288.5358497213"/>
			<point x="495" y="288.5358497213" type="curve" smooth="yes"/>
			<point x="516" y="288.5358497213"/>
			<point x="529" y="276.5358497213"/>
			<point x="529" y="257.5358497213" type="curve" smooth="yes"/>
			<point x="529" y="237.5358497213"/>
			<point x="517" y="222.5358497213"/>
		</contour>
	</outline>
</glyph>
<glyph name="A" format="2">
	<unicode hex="0041"/>
	<advance width="713"/>
	<outline>
		<contour>
			<point x="605" y="99.3956774195" type="curve" smooth="yes"/>
			<point x="619" y="99.3956774195"/>
			<point x="628" y="109.3956774195"/>
			<point x="628" y="127.3956774195" type="curve" smooth="yes"/>
			<point x="628" y="179.3956774195"/>
			<point x="569" y="273.3956774195"/>
			<point x="543" y="505.3956774195" type="curve" smooth="yes"/>
			<point x="520" y="720.3956774195"/>
			<point x="511" y="818.3956774195"/>
			<point x="403" y="818.3956774195" type="curve" smooth="yes"/>
			<point x="338" y="818.3956774195"/>
			<point x="287" y="758.3956774195"/>
			<point x="223" y="627.3956774195" type="curve"/>
			<point x="252" y="634.3956774195" type="line"/>
			<point x="241" y="652.3956774195"/>
			<point x="227" y="663.3956774195"/>
			<point x="211" y="663.3956774195" type="curve"/>
			<point x="195" y="663.3956774195"/>
			<point x="186" y="649.3956774195"/>
			<point x="186" y="628.3956774195" type="curve" smooth="yes"/>
			<point x="186" y="459.3956774195"/>
			<point x="93" y="296.3956774195"/>
			<point x="93" y="147.3956774195" type="curve" smooth="yes"/>
			<point x="93" y="111.3956774195"/>
			<point x="106" y="100.3956774195"/>
			<point x="126" y="100.3956774195" type="curve" smooth="yes"/>
			<point x="141" y="100.3956774195"/>
			<point x="148" y="113.3956774195"/>
			<point x="151" y="133.3956774195" type="curve" smooth="yes"/>
			<point x="203" y="503.3956774195"/>
			<point x="325" y="753.3956774195"/>
			<point x="403" y="753.3956774195" type="curve" smooth="yes"/>
			<point x="456" y="753.3956774195"/>
			<point x="462" y="676.3956774195"/>
			<point x="481" y="500.3956774195" type="curve" smooth="yes"/>
			<point x="493" y="391.3956774195"/>
			<point x="524" y="258.3956774195"/>
			<point x="548" y="185.3956774195" type="curve" smooth="yes"/>
			<point x="568" y="123.3956774195"/>
			<point x="579" y="99.3956774195"/>
		</contour>
		<contour>
			<point x="70" y="302.3956774195" type="curve" smooth="yes"/>
			<point x="169" y="304.3956774195"/>
			<point x="244" y="372.3956774195"/>
			<point x="607" y="372.3956774195" type="curve" smooth="yes"/>
			<point x="642" y="372.3956774195"/>
			<point x="672" y="392.3956774195"/>
			<point x="672" y="411.3956774195" type="curve" smooth="yes"/>
			<point x="672" y="432.3956774195"/>
			<point x="667" y="438.3956774195"/>
			<point x="623" y="438.3956774195" type="curve" smooth="yes"/>
			<point x="409" y="438.3956774195"/>
			<point x="217" y="413.3956774195"/>
			<point x="72" y="356.3956774195" type="curve" smooth="yes"/>
			<point x="50" y="347.3956774195"/>
			<point x="44" y="338.3956774195"/>
			<point x="44" y="324.3956774195" type="curve" smooth="yes"/>
			<point x="44" y="316.3956774195"/>
			<point x="57" y="302.3956774195"/>
		</contour>
	</outline>
</glyph>
<glyph name="G" format="2">
	<unicode hex="0047"/>
	<advance width="742"/>
	<outline>
		<contour>
			<point x="278" y="441.041998035" type="curve" smooth="yes"/>
			<point x="345.3821138211" y="441.041998035"/>
			<point x="472.8589341693" y="508.041998035"/>
			<point x="722" y="508.041998035" type="curve" smooth="yes"/>
			<point x="751" y="508.041998035"/>
			<point x="764" y="523.041998035"/>
			<point x="764" y="537.041998035" type="curve" smooth="yes"/>
			<point x="764" y="558.041998035"/>
			<point x="754" y="575.041998035"/>
			<point x="704" y="575.041998035" type="curve" smooth="yes"/>
			<point x="578.4779411765" y="575.041998035"/>
			<point x="445.6274771685" y="545.8084926385"/>
			<point x="307" y="513.041998035" type="curve" smooth="yes"/>
			<point x="257" y="501.041998035"/>
			<point x="244" y="486.041998035"/>
			<point x="244" y="470.041998035" type="curve" smooth="yes"/>
			<point x="244" y="453.041998035"/>
			<point x="254" y="441.041998035"/>
		</contour>
		<contour>
			<point x="657" y="96.041998035" type="curve" smooth="yes"/>
			<point x="672" y="96.041998035"/>
			<point x="681" y="105.041998035"/>
			<point x="681" y="120.041998035" type="curve"/>
			<point x="681" y="135.041998035"/>
			<point x="677" y="152.041998035"/>
			<point x="661" y="189.041998035" type="curve" smooth="yes"/>
			<point x="628" y="262.041998035"/>
			<point x="605" y="364.041998035"/>
			<point x="605" y="490.041998035" type="curve" smooth="yes"/>
			<point x="605" y="522.041998035"/>
			<point x="592" y="541.041998035"/>
			<point x="571" y="541.041998035" type="curve" smooth="yes"/>
			<point x="539" y="541.041998035"/>
			<point x="523" y="529.041998035"/>
			<point x="509" y="495.041998035" type="curve" smooth="yes"/>
			<point x="444" y="337.041998035"/>
			<point x="376" y="248.041998035"/>
			<point x="274" y="248.041998035" type="curve" smooth="yes"/>
			<point x="193" y="248.041998035"/>
			<point x="133" y="309.041998035"/>
			<point x="133" y="430.041998035" type="curve" smooth="yes"/>
			<point x="133" y="624.041998035"/>
			<point x="323" y="835.041998035"/>
			<point x="489" y="835.041998035" type="curve" smooth="yes"/>
			<point x="513" y="835.041998035"/>
			<point x="520" y="826.041998035"/>
			<point x="520" y="813.041998035" type="curve" smooth="yes"/>
			<point x="520" y="784.041998035"/>
			<point x="503" y="733.041998035"/>
			<point x="535" y="733.041998035" type="curve" smooth="yes"/>
			<point x="563" y="733.041998035"/>
			<point x="589" y="769.041998035"/>
			<point x="589" y="827.041998035" type="curve" smooth="yes"/>
			<point x="589" y="867.041998035"/>
			<point x="562" y="901.041998035"/>
			<point x="495" y="901.041998035" type="curve" smooth="yes"/>
			<point x="288" y="901.041998035"/>
			<point x="65" y="674.041998035"/>
			<point x="65" y="431.041998035" type="curve" smooth="yes"/>
			<point x="65" y="259.041998035"/>
			<point x="156" y="183.041998035"/>
			<point x="277" y="183.041998035" type="curve" smooth="yes"/>
			<point x="381" y="183.041998035"/>
			<point x="482" y="243.041998035"/>
			<point x="569" y="483.041998035" type="curve"/>
			<point x="540" y="485.041998035" type="line"/>
			<point x="544" y="297.041998035"/>
			<point x="580" y="191.041998035"/>
			<point x="600" y="150.041998035" type="curve" smooth="yes"/>
			<point x="617" y="112.041998035"/>
			<point x="632" y="96.041998035"/>
		</contour>
	</outline>
</glyph>
<glyph name="I" format="2">
	<unicode hex="0049"/>
	<advance width="607"/>
	<outline>
		<contour>
			<point x="66" y="169.4208649787" type="curve" smooth="yes"/>
			<point x="139" y="169.4208649787"/>
			<point x="308" y="180.4208649787"/>
			<point x="513" y="180.4208649787" type="curve" smooth="yes"/>
			<point x="563" y="180.4208649787"/>
			<point x="584" y="198.4208649787"/>
			<point x="584" y="220.4208649787" type="curve" smooth="yes"/>
			<point x="584" y="235.4208649787"/>
			<point x="575" y="246.4208649787"/>
			<point x="538" y="246.4208649787" type="curve" smooth="yes"/>
			<point x="353" y="246.4208649787"/>
			<point x="185" y="244.4208649787"/>
			<point x="52" y="229.4208649787" type="curve" smooth="yes"/>
			<point x="30" y="227.4208649787"/>
			<point x="23" y="216.4208649787"/>
			<point x="23" y="200.4208649787" type="curve" smooth="yes"/>
			<point x="23" y="181.4208649787"/>
			<point x="36" y="169.4208649787"/>
		</contour>
		<contour>
			<point x="59" y="728.4208649787" type="curve" smooth="yes"/>
			<point x="158" y="728.4208649787"/>
			<point x="196" y="754.4208649787"/>
			<point x="472" y="754.4208649787" type="curve" smooth="yes"/>
			<point x="534" y="754.4208649787"/>
			<point x="569" y="770.4208649787"/>
			<point x="569" y="798.4208649787" type="curve" smooth="yes"/>
			<point x="569" y="815.4208649787"/>
			<point x="559" y="820.4208649787"/>
			<point x="526" y="820.4208649787" type="curve" smooth="yes"/>
			<point x="360" y="820.4208649787"/>
			<point x="168" y="808.4208649787"/>
			<point x="64" y="790.4208649787" type="curve" smooth="yes"/>
			<point x="33" y="784.4208649787"/>
			<point x="25" y="768.4208649787"/>
			<point x="25" y="756.4208649787" type="curve" smooth="yes"/>
			<point x="25" y="738.4208649787"/>
			<point x="40" y="728.4208649787"/>
		</contour>
		<contour>
			<point x="308" y="220.4208649787" type="curve" smooth="yes"/>
			<point x="323" y="220.4208649787"/>
			<point x="332" y="229.4208649787"/>
			<point x="332" y="249.4208649787" type="curve" smooth="yes"/>
			<point x="332" y="456.2068732092"/>
			<point x="349" y="623.6547052829"/>
			<point x="349" y="710.4208649787" type="curve" smooth="yes"/>
			<point x="349" y="749.4208649787"/>
			<point x="330" y="780.4208649787"/>
			<point x="307" y="780.4208649787" type="curve" smooth="yes"/>
			<point x="288" y="780.4208649787"/>
			<point x="282" y="766.4208649787"/>
			<point x="282" y="739.4208649787" type="curve" smooth="yes"/>
			<point x="282" y="621.7285572864"/>
			<point x="265" y="460.2131561993"/>
			<point x="265" y="297.4208649787" type="curve" smooth="yes"/>
			<point x="265" y="250.4208649787"/>
			<point x="282" y="220.4208649787"/>
		</contour>
	</outline>
</glyph>
<glyph name="R" format="2">
	<unicode hex="0052"/>
	<advance width="700"/>
	<outline>
		<contour>
			<point x="97" y="488.8889834814" type="curve" smooth="yes"/>
			<point x="67" y="488.8889834814"/>
			<point x="63" y="470.8889834814"/>
			<point x="80" y="427.8889834814" type="curve" smooth="yes"/>
			<point x="111" y="350.8889834814"/>
			<point x="116" y="336.8889834814"/>
			<point x="121" y="281.8889834814" type="curve"/>
			<point x="86" y="158.8889834814"/>
			<point x="70" y="67.8889834814"/>
			<point x="70" y="-7.1110165186" type="curve" smooth="yes"/>
			<point x="70" y="-83.1110165186"/>
			<point x="80" y="-126.1110165186"/>
			<point x="114" y="-126.1110165186" type="curve" smooth="yes"/>
			<point x="133" y="-126.1110165186"/>
			<point x="137" y="-118.1110165186"/>
			<point x="137" y="-45.1110165186" type="curve" smooth="yes"/>
			<point x="137" y="229.8889834814"/>
			<point x="252" y="531.8889834814"/>
			<point x="455" y="531.8889834814" type="curve" smooth="yes"/>
			<point x="528" y="531.8889834814"/>
			<point x="556" y="486.8889834814"/>
			<point x="556" y="433.8889834814" type="curve" smooth="yes"/>
			<point x="556" y="351.8889834814"/>
			<point x="479" y="258.8889834814"/>
			<point x="232" y="167.8889834814" type="curve" smooth="yes"/>
			<point x="189" y="151.8889834814"/>
			<point x="182" y="125.8889834814"/>
			<point x="215" y="90.8889834814" type="curve" smooth="yes"/>
			<point x="329" y="-23.1110165186"/>
			<point x="614" y="-125.1110165186"/>
			<point x="686" y="-125.1110165186" type="curve" smooth="yes"/>
			<point x="709" y="-125.1110165186"/>
			<point x="719" y="-116.1110165186"/>
			<point x="719" y="-99.1110165186" type="curve" smooth="yes"/>
			<point x="719" y="-79.1110165186"/>
			<point x="709" y="-68.1110165186"/>
			<point x="667" y="-58.1110165186" type="curve" smooth="yes"/>
			<point x="509" y="-17.1110165186"/>
			<point x="367" y="43.8889834814"/>
			<point x="274" y="118.8889834814" type="curve"/>
			<point x="564" y="223.8889834814"/>
			<point x="626" y="336.8889834814"/>
			<point x="626" y="434.8889834814" type="curve" smooth="yes"/>
			<point x="626" y="525.8889834814"/>
			<point x="577" y="596.8889834814"/>
			<point x="464" y="596.8889834814" type="curve" smooth="yes"/>
			<point x="338" y="596.8889834814"/>
			<point x="226" y="523.8889834814"/>
			<point x="149" y="339.8889834814" type="curve"/>
			<point x="173" y="348.8889834814" type="line"/>
			<point x="164" y="471.8889834814"/>
			<point x="131" y="488.8889834814"/>
		</contour>
	</outline>
</glyph>
<glyph name="S" format="2">
	<unicode hex="0053"/>
	<advance width="561"/>
	<outline>
		<contour>
			<point x="162" y="-76.1988397907" type="curve" smooth="yes"/>
			<point x="332" y="-76.1988397907"/>
			<point x="496" y="-31.1988397907"/>
			<point x="496" y="59.8011602093" type="curve" smooth="yes"/>
			<point x="496" y="214.8011602093"/>
			<point x="136" y="227.8011602093"/>
			<point x="136" y="330.8011602093" type="curve" smooth="yes"/>
			<point x="136" y="410.8011602093"/>
			<point x="250" y="491.8011602093"/>
			<point x="459" y="523.8011602093" type="curve" smooth="yes"/>
			<point x="493" y="528.8011602093"/>
			<point x="504" y="540.8011602093"/>
			<point x="504" y="559.8011602093" type="curve" smooth="yes"/>
			<point x="504" y="580.8011602093"/>
			<point x="490" y="592.8011602093"/>
			<point x="461" y="592.8011602093" type="curve" smooth="yes"/>
			<point x="338" y="592.8011602093"/>
			<point x="67" y="496.8011602093"/>
			<point x="67" y="327.8011602093" type="curve" smooth="yes"/>
			<point x="67" y="170.8011602093"/>
			<point x="407.2618117365" y="169.5661783498"/>
			<point x="425" y="53.8011602093" type="curve"/>
			<point x="379.3472005894" y="13.0837985729"/>
			<point x="290" y="-8.1988397907"/>
			<point x="154" y="-8.1988397907" type="curve" smooth="yes"/>
			<point x="108" y="-8.1988397907"/>
			<point x="100" y="1.8011602093"/>
			<point x="72" y="1.8011602093" type="curve" smooth="yes"/>
			<point x="52" y="1.8011602093"/>
			<point x="43" y="-7.1988397907"/>
			<point x="43" y="-23.1988397907" type="curve" smooth="yes"/>
			<point x="43" y="-54.1988397907"/>
			<point x="82" y="-76.1988397907"/>
		</contour>
	</outline>
</glyph>
<glyph name="T" format="2">
	<unicode hex="0054"/>
	<advance width="647"/>
	<outline>
		<contour>
			<point x="295" y="729.1890851682" type="curve" smooth="yes"/>
			<point x="271" y="447.1890851682"/>
			<point x="283" y="283.1890851682"/>
			<point x="292" y="202.1890851682" type="curve" smooth="yes"/>
			<point x="301" y="122.1890851682"/>
			<point x="322" y="100.1890851682"/>
			<point x="345" y="100.1890851682" type="curve" smooth="yes"/>
			<point x="360" y="100.1890851682"/>
			<point x="371" y="107.1890851682"/>
			<point x="371" y="126.1890851682" type="curve" smooth="yes"/>
			<point x="371" y="169.1890851682"/>
			<point x="333" y="280.1890851682"/>
			<point x="357" y="657.1890851682" type="curve" smooth="yes"/>
			<point x="362" y="745.1890851682"/>
			<point x="355" y="773.1890851682"/>
			<point x="324" y="773.1890851682" type="curve" smooth="yes"/>
			<point x="307" y="773.1890851682"/>
			<point x="297" y="755.1890851682"/>
		</contour>
		<contour>
			<point x="134" y="752.1890851682" type="curve" smooth="yes"/>
			<point x="262" y="748.1890851682"/>
			<point x="337" y="747.1890851682"/>
			<point x="489" y="747.1890851682" type="curve" smooth="yes"/>
			<point x="553" y="747.1890851682"/>
			<point x="618" y="763.1890851682"/>
			<point x="618" y="798.1890851682" type="curve" smooth="yes"/>
			<point x="618" y="813.1890851682"/>
			<point x="608" y="824.1890851682"/>
			<point x="586" y="824.1890851682" type="curve" smooth="yes"/>
			<point x="555" y="824.1890851682"/>
			<point x="545" y="813.1890851682"/>
			<point x="452" y="813.1890851682" type="curve" smooth="yes"/>
			<point x="317" y="813.1890851682"/>
			<point x="245" y="819.1890851682"/>
			<point x="80" y="819.1890851682" type="curve" smooth="yes"/>
			<point x="52" y="819.1890851682"/>
			<point x="41" y="810.1890851682"/>
			<point x="41" y="798.1890851682" type="curve" smooth="yes"/>
			<point x="41" y="776.5981760773"/>
			<point x="56" y="754.1890851682"/>
		</contour>
	</outline>
</glyph>
<glyph name="U" format="2">
	<unicode hex="0055"/>
	<advance width="650"/>
	<outline>
		<contour>
			<point x="351" y="149.4301434841" type="curve" smooth="yes"/>
			<point x="509" y="149.4301434841"/>
			<point x="581" y="256.0121370532"/>
			<point x="581" y="410.4301434841" type="curve" smooth="yes"/>
			<point x="581" y="466.2939932494"/>
			<point x="576" y="519.8620683667"/>
			<point x="576" y="573.4301434841" type="curve" smooth="yes"/>
			<point x="576" y="655.690259091"/>
			<point x="588" y="677.9850567789"/>
			<point x="588" y="706.4301434841" type="curve" smooth="yes"/>
			<point x="588" y="728.4301434841"/>
			<point x="578" y="734.4301434841"/>
			<point x="562" y="734.4301434841" type="curve" smooth="yes"/>
			<point x="527" y="734.4301434841"/>
			<point x="506" y="698.4301434841"/>
			<point x="506" y="637.4301434841" type="curve" smooth="yes"/>
			<point x="506" y="554.507066561"/>
			<point x="514" y="505.4301434841"/>
			<point x="514" y="417.4301434841" type="curve" smooth="yes"/>
			<point x="514" y="278.7555403095"/>
			<point x="464" y="215.4301434841"/>
			<point x="344" y="215.4301434841" type="curve" smooth="yes"/>
			<point x="250.9322916667" y="215.4301434841"/>
			<point x="177" y="257.6335333146"/>
			<point x="177" y="381.4301434841" type="curve" smooth="yes"/>
			<point x="177" y="438.4301434841"/>
			<point x="184" y="508.4301434841"/>
			<point x="184" y="560.4301434841" type="curve" smooth="yes"/>
			<point x="184" y="686.4765352367"/>
			<point x="151" y="731.4301434841"/>
			<point x="122" y="731.4301434841" type="curve" smooth="yes"/>
			<point x="103" y="731.4301434841"/>
			<point x="92" y="720.4301434841"/>
			<point x="92" y="695.4301434841" type="curve" smooth="yes"/>
			<point x="92" y="655.0878974948"/>
			<point x="116" y="644.5638333237"/>
			<point x="116" y="531.4301434841" type="curve" smooth="yes"/>
			<point x="116" y="493.4301434841"/>
			<point x="111" y="433.4301434841"/>
			<point x="111" y="379.4301434841" type="curve" smooth="yes"/>
			<point x="111" y="240.6634768174"/>
			<point x="182.5471698113" y="149.4301434841"/>
		</contour>
	</outline>
</glyph>
<glyph name="X" format="2">
	<unicode hex="0058"/>
	<advance width="587"/>
	<image fileName="W_.png" xScale="2.1183007847" xyScale="-0.3644236559" yxScale="0.3644236559" yScale="2.1183007847" xOffset="-7152.8449585541" yOffset="1029.1221139848" color="0,0,0,0.26332"/>
	<outline>
		<contour>
			<point x="173" y="738.2145816676" type="curve" smooth="yes"/>
			<point x="213" y="589.2145816676"/>
			<point x="400" y="442.2145816676"/>
			<point x="449" y="352.2145816676" type="curve" smooth="yes"/>
			<point x="493" y="270.2145816676"/>
			<point x="474" y="246.2145816676"/>
			<point x="453" y="246.2145816676" type="curve" smooth="yes"/>
			<point x="441" y="246.2145816676"/>
			<point x="426" y="247.2145816676"/>
			<point x="401" y="295.2145816676" type="curve" smooth="yes"/>
			<point x="344" y="411.2145816676"/>
			<point x="174" y="553.2145816676"/>
			<point x="132" y="655.2145816676" type="curve" smooth="yes"/>
			<point x="96" y="746.2145816676"/>
			<point x="107" y="771.2145816676"/>
			<point x="135" y="771.2145816676" type="curve" smooth="yes"/>
			<point x="154" y="771.2145816676"/>
			<point x="166" y="762.2145816676"/>
		</contour>
		<contour>
			<point x="456" y="670.2145816676" type="curve" smooth="yes"/>
			<point x="374.6322277799" y="594.4861599974"/>
			<point x="243.8001508444" y="462.7748800042"/>
			<point x="152" y="281.2145816676" type="curve" smooth="yes"/>
			<point x="134" y="245.2145816676"/>
			<point x="122" y="239.2145816676"/>
			<point x="107" y="239.2145816676" type="curve" smooth="yes"/>
			<point x="81" y="239.2145816676"/>
			<point x="69" y="265.2145816676"/>
			<point x="97" y="324.2145816676" type="curve" smooth="yes"/>
			<point x="145.7376721357" y="424.4749357752"/>
			<point x="322.121205409" y="638.5285061119"/>
			<point x="436" y="744.2145816676" type="curve" smooth="yes"/>
			<point x="452" y="758.2145816676"/>
			<point x="460" y="761.2145816676"/>
			<point x="468" y="761.2145816676" type="curve" smooth="yes"/>
			<point x="490" y="761.2145816676"/>
			<point x="509" y="720.2145816676"/>
		</contour>
	</outline>
</glyph>
<glyph name="Y" format="2">
	<unicode hex="0059"/>
	<advance width="601"/>
	<image fileName="W_.png" xScale="2.149419181" yScale="2.149419181" xOffset="-7799.9384359798" yOffset="-239.078106569" color="0,0,0,0.26332"/>
	<outline>
		<contour>
			<point x="542" y="628.0488022254" type="curve" smooth="yes"/>
			<point x="419.3794219302" y="496.2774347474"/>
			<point x="301.9366846883" y="337.7578823254"/>
			<point x="268" y="152.0488022254" type="curve" smooth="yes"/>
			<point x="259" y="102.0488022254"/>
			<point x="247" y="90.0488022254"/>
			<point x="222" y="90.0488022254" type="curve" smooth="yes"/>
			<point x="196" y="90.0488022254"/>
			<point x="184" y="112.0488022254"/>
			<point x="198" y="173.0488022254" type="curve" smooth="yes"/>
			<point x="232.1199372822" y="340.8051605297"/>
			<point x="356.5077723761" y="536.6719173612"/>
			<point x="501" y="694.0488022254" type="curve" smooth="yes"/>
			<point x="527" y="722.0488022254"/>
			<point x="542" y="727.0488022254"/>
			<point x="557" y="727.0488022254" type="curve" smooth="yes"/>
			<point x="570" y="727.0488022254"/>
			<point x="583" y="716.0488022254"/>
			<point x="583" y="697.0488022254" type="curve" smooth="yes"/>
			<point x="583" y="673.0488022254"/>
			<point x="579" y="666.0488022254"/>
		</contour>
		<contour>
			<point x="62" y="725.0488022254" type="curve" smooth="yes"/>
			<point x="151" y="591.0488022254"/>
			<point x="206" y="574.0488022254"/>
			<point x="301" y="437.0488022254" type="curve" smooth="yes"/>
			<point x="312.8567342339" y="418.7247584093"/>
			<point x="317.3333333333" y="383.0488022254"/>
			<point x="280" y="383.0488022254" type="curve" smooth="yes"/>
			<point x="262" y="383.0488022254"/>
			<point x="250" y="395.0488022254"/>
			<point x="239" y="410.0488022254" type="curve" smooth="yes"/>
			<point x="139" y="541.0488022254"/>
			<point x="78" y="572.0488022254"/>
			<point x="14" y="664.0488022254" type="curve" smooth="yes"/>
			<point x="-11" y="703.0488022254"/>
			<point x="-15" y="712.0488022254"/>
			<point x="-15" y="728.0488022254" type="curve" smooth="yes"/>
			<point x="-15" y="745.0488022254"/>
			<point x="-4" y="756.0488022254"/>
			<point x="13" y="756.0488022254" type="curve" smooth="yes"/>
			<point x="33.2391304348" y="756.0488022254"/>
			<point x="46.2848074006" y="747.639391587"/>
		</contour>
	</outline>
</glyph>
<glyph name="Z" format="2">
	<unicode hex="005A"/>
	<advance width="636"/>
	<image fileName="W_.png" xScale="2.149419181" yScale="2.149419181" xOffset="-8482.561352475" yOffset="-239.078106569" color="0,0,0,0.26332"/>
	<outline>
		<contour>
			<point x="171" y="530.5489654387" type="curve" smooth="yes"/>
			<point x="223.4210083293" y="542.4628309681"/>
			<point x="271.1216931217" y="551.5489654387"/>
			<point x="320" y="551.5489654387" type="curve" smooth="yes"/>
			<point x="474.375" y="551.5489654387"/>
			<point x="510" y="484.766356743"/>
			<point x="510" y="407.5489654387" type="curve" smooth="yes"/>
			<point x="510" y="345.2480804829"/>
			<point x="487.8670781142" y="302.0258039991"/>
			<point x="314" y="187.5489654387" type="curve" smooth="yes"/>
			<point x="146.3349685703" y="77.1765075629"/>
			<point x="160.0454113034" y="22.2450590235"/>
			<point x="173" y="-64.4510345613" type="curve" smooth="yes"/>
			<point x="176" y="-87.4510345613"/>
			<point x="105" y="-21.4510345613"/>
			<point x="149" y="-39.4510345613" type="curve" smooth="yes"/>
			<point x="173" y="-49.4510345613"/>
			<point x="202" y="-50.4510345613"/>
			<point x="222" y="-50.4510345613" type="curve" smooth="yes"/>
			<point x="287.3684210526" y="-50.4510345613"/>
			<point x="353.5748987854" y="-42.4510345613"/>
			<point x="429" y="-42.4510345613" type="curve" smooth="yes"/>
			<point x="556" y="-42.4510345613"/>
			<point x="608" y="-54.4510345613"/>
			<point x="608" y="-89.4510345613" type="curve" smooth="yes"/>
			<point x="608" y="-106.4510345613"/>
			<point x="593" y="-115.4510345613"/>
			<point x="561" y="-115.4510345613" type="curve" smooth="yes"/>
			<point x="515" y="-115.4510345613"/>
			<point x="494" y="-108.4510345613"/>
			<point x="413" y="-108.4510345613" type="curve" smooth="yes"/>
			<point x="344.5614035088" y="-108.4510345613"/>
			<point x="280.2456140351" y="-115.4510345613"/>
			<point x="225" y="-115.4510345613" type="curve" smooth="yes"/>
			<point x="133" y="-115.4510345613"/>
			<point x="101" y="-74.4510345613"/>
			<point x="101" y="-1.4510345613" type="curve" smooth="yes"/>
			<point x="101" y="51.5489654387"/>
			<point x="115.1130240308" y="143.545189458"/>
			<point x="289" y="252.5489654387" type="curve" smooth="yes"/>
			<point x="443.428598024" y="347.7103717886"/>
			<point x="452.609053608" y="394.7317494606"/>
			<point x="441" y="459.5489654387" type="curve" smooth="yes"/>
			<point x="430" y="515.5489654387"/>
			<point x="491" y="425.5489654387"/>
			<point x="446" y="452.5489654387" type="curve" smooth="yes"/>
			<point x="417.2881839675" y="469.596606208"/>
			<point x="388.6100628931" y="484.5489654387"/>
			<point x="321" y="484.5489654387" type="curve" smooth="yes"/>
			<point x="228.7722772277" y="484.5489654387"/>
			<point x="191.0792079208" y="464.5489654387"/>
			<point x="159" y="464.5489654387" type="curve" smooth="yes"/>
			<point x="144" y="464.5489654387"/>
			<point x="125" y="472.5489654387"/>
			<point x="125" y="492.5489654387" type="curve" smooth="yes"/>
			<point x="125" y="509.5489654387"/>
			<point x="139" y="522.5489654387"/>
		</contour>
	</outline>
</glyph>
<glyph name="bracketleft" format="2">
	<unicode hex="005B"/>
	<advance width="492"/>
	<outline>
		<contour>
			<point x="387" y="563.6845591487" type="curve" smooth="yes"/>
			<point x="319" y="563.6845591487"/>
			<point x="214" y="547.6845591487"/>
			<point x="163" y="549.6845591487" type="curve"/>
			<point x="203" y="579.6845591487" type="line"/>
			<point x="182" y="443.6845591487"/>
			<point x="202" y="166.6845591487"/>
			<point x="196" y="53.6845591487" type="curve" smooth="yes"/>
			<point x="191" y="-51.3154408513"/>
			<point x="176" y="-267.3154408513"/>
			<point x="225" y="-395.3154408513" type="curve"/>
			<point x="183" y="-380.3154408513" type="line"/>
			<point x="221.6666666667" y="-367.4265519624"/>
			<point x="288.2580645161" y="-375.3154408513"/>
			<point x="350" y="-375.3154408513" type="curve" smooth="yes"/>
			<point x="381.6235294118" y="-375.3154408513"/>
			<point x="419.44" y="-369.3154408513"/>
			<point x="434" y="-369.3154408513" type="curve" smooth="yes"/>
			<point x="451.0857142857" y="-369.3154408513"/>
			<point x="460" y="-382.1154408513"/>
			<point x="460" y="-397.3154408513" type="curve" smooth="yes"/>
			<point x="460" y="-431.8154408513"/>
			<point x="427" y="-443.3154408513"/>
			<point x="367" y="-443.3154408513" type="curve" smooth="yes"/>
			<point x="333" y="-443.3154408513"/>
			<point x="296" y="-440.3154408513"/>
			<point x="264" y="-440.3154408513" type="curve" smooth="yes"/>
			<point x="235" y="-440.3154408513"/>
			<point x="213" y="-448.3154408513"/>
			<point x="193" y="-448.3154408513" type="curve" smooth="yes"/>
			<point x="178" y="-448.3154408513"/>
			<point x="169" y="-440.3154408513"/>
			<point x="163" y="-429.3154408513" type="curve" smooth="yes"/>
			<point x="98" y="-307.3154408513"/>
			<point x="121" y="-57.3154408513"/>
			<point x="126" y="57.6845591487" type="curve" smooth="yes"/>
			<point x="132" y="171.6845591487"/>
			<point x="113" y="452.6845591487"/>
			<point x="133" y="589.6845591487" type="curve" smooth="yes"/>
			<point x="136" y="608.6845591487"/>
			<point x="154" y="619.6845591487"/>
			<point x="173" y="619.6845591487" type="curve" smooth="yes"/>
			<point x="220.5471698113" y="619.6845591487"/>
			<point x="326.2075471698" y="632.6845591487"/>
			<point x="397" y="632.6845591487" type="curve" smooth="yes"/>
			<point x="435.8311688312" y="632.6845591487"/>
			<point x="462" y="628.3790035931"/>
			<point x="462" y="601.6845591487" type="curve" smooth="yes"/>
			<point x="462" y="579.9702734344"/>
			<point x="443.1111111111" y="561.6845591487"/>
			<point x="422" y="561.6845591487" type="curve" smooth="yes"/>
			<point x="408" y="561.6845591487"/>
			<point x="400" y="563.6845591487"/>
		</contour>
	</outline>
</glyph>
<glyph name="b" format="2">
	<unicode hex="0062"/>
	<advance width="575"/>
	<image fileName="b.png" xScale="2.580311745" yScale="2.580311745" xOffset="-92.140747017" yOffset="-580.570142633" color="0,0,0,0.24109"/>
	<outline>
		<contour>
			<point x="172" y="912.3297576835" type="curve" smooth="yes"/>
			<point x="172" y="809.3297576835"/>
			<point x="156" y="749.3297576835"/>
			<point x="156" y="557.3297576835" type="curve" smooth="yes"/>
			<point x="156" y="515.3594606538"/>
			<point x="162.1095103813" y="464.9118853534"/>
			<point x="166" y="400.3297576835" type="curve" smooth="yes"/>
			<point x="166.1873328884" y="396.8328770995"/>
			<point x="148.0759698208" y="390.3103121117"/>
			<point x="150" y="401.3297576835" type="curve" smooth="yes"/>
			<point x="178.8164518052" y="565.0072039368"/>
			<point x="287" y="622.3297576835"/>
			<point x="363" y="622.3297576835" type="curve" smooth="yes"/>
			<point x="441.4390243902" y="622.3297576835"/>
			<point x="497" y="572.3297576835"/>
			<point x="497" y="454.3297576835" type="curve" smooth="yes"/>
			<point x="497" y="296.3297576835"/>
			<point x="348.5103857567" y="204.3297576835"/>
			<point x="190" y="204.3297576835" type="curve" smooth="yes"/>
			<point x="141" y="204.3297576835"/>
			<point x="86" y="218.3297576835"/>
			<point x="86" y="255.3297576835" type="curve" smooth="yes"/>
			<point x="86" y="272.3297576835"/>
			<point x="96" y="281.3297576835"/>
			<point x="110" y="281.3297576835" type="curve" smooth="yes"/>
			<point x="127" y="281.3297576835"/>
			<point x="154" y="269.3297576835"/>
			<point x="178" y="269.3297576835" type="curve" smooth="yes"/>
			<point x="319.1914893617" y="269.3297576835"/>
			<point x="430" y="336.3297576835"/>
			<point x="430" y="463.3297576835" type="curve" smooth="yes"/>
			<point x="430" y="511.3297576835"/>
			<point x="416.1855670103" y="556.3297576835"/>
			<point x="363" y="556.3297576835" type="curve" smooth="yes"/>
			<point x="265" y="556.3297576835"/>
			<point x="201.2854598469" y="448.2820227853"/>
			<point x="173" y="292.3297576835" type="curve" smooth="yes"/>
			<point x="168" y="269.3297576835"/>
			<point x="158" y="263.3297576835"/>
			<point x="147" y="263.3297576835" type="curve" smooth="yes"/>
			<point x="133" y="263.3297576835"/>
			<point x="124" y="287.3297576835"/>
			<point x="117" y="324.3297576835" type="curve" smooth="yes"/>
			<point x="99.9583416957" y="418.0588783569"/>
			<point x="88" y="517.4317984998"/>
			<point x="88" y="573.3297576835" type="curve" smooth="yes"/>
			<point x="88" y="764.3297576835"/>
			<point x="104" y="837.3297576835"/>
			<point x="104" y="937.3297576835" type="curve" smooth="yes"/>
			<point x="104" y="958.3297576835"/>
			<point x="114" y="978.3297576835"/>
			<point x="132" y="978.3297576835" type="curve" smooth="yes"/>
			<point x="152" y="978.3297576835"/>
			<point x="172" y="954.3297576835"/>
		</contour>
	</outline>
</glyph>
<glyph name="g" format="2">
	<unicode hex="0067"/>
	<advance width="600"/>
	<outline>
		<contour>
			<point x="438" y="644.2927125667" type="curve" smooth="yes"/>
			<point x="469" y="644.2927125667"/>
			<point x="484" y="609.2927125667"/>
			<point x="487" y="571.2927125667" type="curve" smooth="yes"/>
			<point x="501.0155442572" y="402.1050711758"/>
			<point x="563" y="323.2927125667"/>
			<point x="563" y="122.2927125667" type="curve" smooth="yes"/>
			<point x="563" y="-2.7072874333"/>
			<point x="494.85" y="-78.7072874333"/>
			<point x="375" y="-78.7072874333" type="curve" smooth="yes"/>
			<point x="176.4285714286" y="-78.7072874333"/>
			<point x="97" y="32.2927125667"/>
			<point x="97" y="110.2927125667" type="curve" smooth="yes"/>
			<point x="97" y="138.2927125667"/>
			<point x="115" y="162.2927125667"/>
			<point x="137" y="162.2927125667" type="curve" smooth="yes"/>
			<point x="155" y="162.2927125667"/>
			<point x="163" y="151.2927125667"/>
			<point x="163" y="130.2927125667" type="curve" smooth="yes"/>
			<point x="163" y="43.2927125667"/>
			<point x="253.5454545455" y="-14.7072874333"/>
			<point x="367" y="-14.7072874333" type="curve" smooth="yes"/>
			<point x="466.3185840709" y="-14.7072874333"/>
			<point x="496" y="38.2927125667"/>
			<point x="496" y="133.2927125667" type="curve" smooth="yes"/>
			<point x="496" y="293.2927125667"/>
			<point x="434.0199980334" y="389.0927322328"/>
			<point x="422" y="509.2927125667" type="curve"/>
			<point x="454" y="498.2927125667" type="line"/>
			<point x="434.0139954407" y="344.4004774603"/>
			<point x="349.5294117647" y="272.2927125667"/>
			<point x="232" y="272.2927125667" type="curve" smooth="yes"/>
			<point x="107.7754010695" y="272.2927125667"/>
			<point x="30" y="332.2927125667"/>
			<point x="30" y="448.2927125667" type="curve" smooth="yes"/>
			<point x="30" y="567.2927125667"/>
			<point x="147.8834080717" y="675.2927125667"/>
			<point x="278" y="675.2927125667" type="curve" smooth="yes"/>
			<point x="381.9393939394" y="675.2927125667"/>
			<point x="418" y="625.2927125667"/>
			<point x="418" y="578.2927125667" type="curve" smooth="yes"/>
			<point x="418" y="565.2927125667"/>
			<point x="407" y="544.2927125667"/>
			<point x="394" y="544.2927125667" type="curve" smooth="yes"/>
			<point x="351.0869565217" y="544.2927125667"/>
			<point x="368.0206185567" y="609.2927125667"/>
			<point x="289" y="609.2927125667" type="curve" smooth="yes"/>
			<point x="182.0778443114" y="609.2927125667"/>
			<point x="97" y="529.2927125667"/>
			<point x="97" y="443.2927125667" type="curve" smooth="yes"/>
			<point x="97" y="373.2927125667"/>
			<point x="138.7981651376" y="335.2927125667"/>
			<point x="231" y="335.2927125667" type="curve" smooth="yes"/>
			<point x="327.4337349398" y="335.2927125667"/>
			<point x="405" y="406.2927125667"/>
			<point x="405" y="605.2927125667" type="curve" smooth="yes"/>
			<point x="405" y="632.2927125667"/>
			<point x="413" y="644.2927125667"/>
		</contour>
	</outline>
</glyph>
<glyph name="h" format="2">
	<unicode hex="0068"/>
	<advance width="613"/>
	<outline>
		<contour>
			<point x="560" y="-176.3263472194" type="curve" smooth="yes"/>
			<point x="578.6666666667" y="-176.3263472194"/>
			<point x="595" y="-162.3263472194"/>
			<point x="595" y="-146.3263472194" type="curve" smooth="yes"/>
			<point x="595" y="-134.3263472194"/>
			<point x="591" y="-123.3263472194"/>
			<point x="585" y="-113.3263472194" type="curve" smooth="yes"/>
			<point x="563" y="-76.3263472194"/>
			<point x="549.015666716" y="-34.4902451715"/>
			<point x="536" y="101.6736527806" type="curve" smooth="yes"/>
			<point x="521.2785080922" y="262.4776413119"/>
			<point x="503.1962616822" y="357.6736527806"/>
			<point x="419" y="357.6736527806" type="curve" smooth="yes"/>
			<point x="319.821192053" y="357.6736527806"/>
			<point x="203" y="258.6736527806"/>
			<point x="107" y="-58.3263472194" type="curve"/>
			<point x="125" y="-60.3263472194" type="line"/>
			<point x="121" y="128.6736527806"/>
			<point x="173" y="323.6736527806"/>
			<point x="193" y="477.6736527806" type="curve" smooth="yes"/>
			<point x="208" y="598.6736527806"/>
			<point x="197" y="642.6736527806"/>
			<point x="162" y="643.6736527806" type="curve" smooth="yes"/>
			<point x="142" y="643.6736527806"/>
			<point x="133" y="625.6736527806"/>
			<point x="130" y="606.6736527806" type="curve" smooth="yes"/>
			<point x="125" y="565.6736527806"/>
			<point x="129" y="514.6736527806"/>
			<point x="122" y="458.6736527806" type="curve" smooth="yes"/>
			<point x="106" y="327.6736527806"/>
			<point x="55" y="166.6736527806"/>
			<point x="55" y="-71.3263472194" type="curve" smooth="yes"/>
			<point x="55" y="-146.3263472194"/>
			<point x="77" y="-176.3263472194"/>
			<point x="103" y="-176.3263472194" type="curve" smooth="yes"/>
			<point x="124" y="-176.3263472194"/>
			<point x="140" y="-168.3263472194"/>
			<point x="149" y="-138.3263472194" type="curve" smooth="yes"/>
			<point x="228.5117974408" y="135.4357908048"/>
			<point x="341" y="292.6736527806"/>
			<point x="418" y="292.6736527806" type="curve"/>
			<point x="447.1093557521" y="249.5918062675"/>
			<point x="463" y="191.6736527806"/>
			<point x="473" y="37.6736527806" type="curve" smooth="yes"/>
			<point x="481" y="-81.3263472194"/>
			<point x="520" y="-176.3263472194"/>
		</contour>
	</outline>
</glyph>
<glyph name="l" format="2">
	<unicode hex="006C"/>
	<advance width="318"/>
	<image fileName="b.png" xScale="2.580311745" yScale="2.580311745" xOffset="-2454.3109110762" yOffset="-580.570142633" color="0,0,0,0.24109"/>
	<outline>
		<contour>
			<point x="157" y="902.0659711437" type="curve" smooth="yes"/>
			<point x="157" y="829.0659711437"/>
			<point x="129" y="745.0659711437"/>
			<point x="129" y="498.0659711437" type="curve" smooth="yes"/>
			<point x="129" y="277.0659711437"/>
			<point x="157" y="207.0659711437"/>
			<point x="193" y="207.0659711437" type="curve" smooth="yes"/>
			<point x="261.7012987013" y="207.0659711437"/>
			<point x="272.0625" y="245.0659711437"/>
			<point x="308" y="245.0659711437" type="curve" smooth="yes"/>
			<point x="326" y="245.0659711437"/>
			<point x="332" y="233.0659711437"/>
			<point x="332" y="216.0659711437" type="curve" smooth="yes"/>
			<point x="332" y="175.7629408407"/>
			<point x="260.8137254902" y="140.0659711437"/>
			<point x="195" y="140.0659711437" type="curve" smooth="yes"/>
			<point x="113" y="140.0659711437"/>
			<point x="61" y="184.0659711437"/>
			<point x="61" y="518.0659711437" type="curve" smooth="yes"/>
			<point x="61" y="691.6019711437"/>
			<point x="73" y="787.0659711437"/>
			<point x="89" y="892.0659711437" type="curve" smooth="yes"/>
			<point x="98" y="944.0659711437"/>
			<point x="108.2727272727" y="961.0659711437"/>
			<point x="126" y="961.0659711437" type="curve" smooth="yes"/>
			<point x="144.6" y="961.0659711437"/>
			<point x="157" y="945.0659711437"/>
		</contour>
	</outline>
</glyph>
<glyph name="o" format="2">
	<unicode hex="006F"/>
	<advance width="600"/>
	<outline>
		<contour>
			<point x="315" y="-190.154025786" type="curve" smooth="yes"/>
			<point x="440" y="-190.154025786"/>
			<point x="535" y="-92.4397400717"/>
			<point x="535" y="37.845974214" type="curve" smooth="yes"/>
			<point x="535" y="183.9863250912"/>
			<point x="453" y="275.845974214"/>
			<point x="321" y="275.845974214" type="curve" smooth="yes"/>
			<point x="234" y="275.845974214"/>
			<point x="152" y="198.845974214"/>
			<point x="152" y="144.845974214" type="curve" smooth="yes"/>
			<point x="152" y="124.845974214"/>
			<point x="160" y="115.845974214"/>
			<point x="178" y="115.845974214" type="curve" smooth="yes"/>
			<point x="204" y="115.845974214"/>
			<point x="202" y="139.845974214"/>
			<point x="234" y="171.845974214" type="curve" smooth="yes"/>
			<point x="259" y="196.845974214"/>
			<point x="284" y="210.845974214"/>
			<point x="329" y="210.845974214" type="curve" smooth="yes"/>
			<point x="415" y="210.845974214"/>
			<point x="467" y="148.0880124306"/>
			<point x="467" y="43.845974214" type="curve" smooth="yes"/>
			<point x="467" y="-58.0866100557"/>
			<point x="407" y="-124.154025786"/>
			<point x="312" y="-124.154025786" type="curve" smooth="yes"/>
			<point x="208.1111111111" y="-124.154025786"/>
			<point x="142" y="-58.0646403111"/>
			<point x="142" y="44.845974214" type="curve" smooth="yes"/>
			<point x="142" y="116.6661180989"/>
			<point x="183.9969435615" y="164.4562230705"/>
			<point x="229" y="193.845974214" type="curve" smooth="yes"/>
			<point x="252" y="208.845974214"/>
			<point x="260" y="219.845974214"/>
			<point x="260" y="239.845974214" type="curve" smooth="yes"/>
			<point x="260" y="255.845974214"/>
			<point x="250" y="260.845974214"/>
			<point x="235" y="260.845974214" type="curve" smooth="yes"/>
			<point x="190.7647058824" y="260.845974214"/>
			<point x="75" y="174.9962089558"/>
			<point x="75" y="37.845974214" type="curve" smooth="yes"/>
			<point x="75" y="-94.3557064583"/>
			<point x="174.84" y="-190.154025786"/>
		</contour>
	</outline>
</glyph>
<glyph name="s" format="2">
	<unicode hex="0073"/>
	<advance width="485"/>
	<outline>
		<contour>
			<point x="186" y="-262.5963309701" type="curve" smooth="yes"/>
			<point x="327" y="-262.5963309701"/>
			<point x="432" y="-190.5963309701"/>
			<point x="432" y="-81.5963309701" type="curve" smooth="yes"/>
			<point x="432" y="78.4036690299"/>
			<point x="137.9742160848" y="63.5348306853"/>
			<point x="115" y="180.4036690299" type="curve"/>
			<point x="150.0169937023" y="277.4507658621"/>
			<point x="225.25" y="319.4036690299"/>
			<point x="325" y="319.4036690299" type="curve" smooth="yes"/>
			<point x="344" y="319.4036690299"/>
			<point x="356" y="317.4036690299"/>
			<point x="362" y="317.4036690299" type="curve" smooth="yes"/>
			<point x="382" y="317.4036690299"/>
			<point x="392" y="327.4036690299"/>
			<point x="392" y="342.4036690299" type="curve" smooth="yes"/>
			<point x="392" y="359.4036690299"/>
			<point x="366" y="383.4036690299"/>
			<point x="323" y="384.4036690299" type="curve" smooth="yes"/>
			<point x="186.7835598206" y="387.523129492"/>
			<point x="62" y="288.4036690299"/>
			<point x="62" y="176.4036690299" type="curve" smooth="yes"/>
			<point x="62" y="12.4036690299"/>
			<point x="342.0807272104" y="36.1222770394"/>
			<point x="377" y="-85.5963309701" type="curve"/>
			<point x="347" y="-165.5963309701"/>
			<point x="288.7857142857" y="-197.5963309701"/>
			<point x="182" y="-197.5963309701" type="curve" smooth="yes"/>
			<point x="98.6162790698" y="-197.5963309701"/>
			<point x="105.6627906977" y="-173.5963309701"/>
			<point x="81" y="-173.5963309701" type="curve" smooth="yes"/>
			<point x="62" y="-173.5963309701"/>
			<point x="52" y="-186.5963309701"/>
			<point x="52" y="-202.5963309701" type="curve" smooth="yes"/>
			<point x="52" y="-230.5963309701"/>
			<point x="99" y="-262.5963309701"/>
		</contour>
	</outline>
</glyph>
<glyph name="t" format="2">
	<unicode hex="0074"/>
	<advance width="443"/>
	<outline>
		<contour>
			<point x="148" y="137.2434728268" type="curve" smooth="yes"/>
			<point x="148" y="301.7231776238"/>
			<point x="185.7858632835" y="358.3706626415"/>
			<point x="208" y="528.2434728268" type="curve" smooth="yes"/>
			<point x="221" y="625.2434728268"/>
			<point x="217" y="677.2434728268"/>
			<point x="183" y="677.2434728268" type="curve" smooth="yes"/>
			<point x="162" y="677.2434728268"/>
			<point x="156" y="665.2434728268"/>
			<point x="154" y="650.2434728268" type="curve" smooth="yes"/>
			<point x="150" y="616.2434728268"/>
			<point x="147" y="580.2434728268"/>
			<point x="139" y="515.2434728268" type="curve" smooth="yes"/>
			<point x="123.1892542647" y="400.6155662462"/>
			<point x="81" y="293.6251522161"/>
			<point x="81" y="133.2434728268" type="curve" smooth="yes"/>
			<point x="81" y="-25.7565271732"/>
			<point x="131.9545454545" y="-131.7565271732"/>
			<point x="271" y="-131.7565271732" type="curve" smooth="yes"/>
			<point x="335" y="-131.7565271732"/>
			<point x="371" y="-100.7565271732"/>
			<point x="371" y="-69.7565271732" type="curve" smooth="yes"/>
			<point x="371" y="-51.7565271732"/>
			<point x="365" y="-42.7565271732"/>
			<point x="351" y="-42.7565271732" type="curve" smooth="yes"/>
			<point x="324" y="-42.7565271732"/>
			<point x="325" y="-65.7565271732"/>
			<point x="268" y="-65.7565271732" type="curve" smooth="yes"/>
			<point x="188.8" y="-65.7565271732"/>
			<point x="148" y="-14.3530936968"/>
		</contour>
		<contour>
			<point x="154" y="268.2434728268" type="curve" smooth="yes"/>
			<point x="225.4298462695" y="289.3706104558"/>
			<point x="284.9428860061" y="302.2386235254"/>
			<point x="391" y="311.2434728268" type="curve" smooth="yes"/>
			<point x="415.990518351" y="313.2427142949"/>
			<point x="426" y="319.2434728268"/>
			<point x="426" y="337.2434728268" type="curve" smooth="yes"/>
			<point x="426" y="356.2434728268"/>
			<point x="407" y="371.2434728268"/>
			<point x="379" y="371.2434728268" type="curve" smooth="yes"/>
			<point x="316" y="371.2434728268"/>
			<point x="228" y="354.2434728268"/>
			<point x="169" y="335.2434728268" type="curve" smooth="yes"/>
			<point x="118" y="320.2434728268"/>
			<point x="111" y="310.2434728268"/>
			<point x="111" y="286.2434728268" type="curve" smooth="yes"/>
			<point x="111" y="267.2434728268"/>
			<point x="121" y="258.2434728268"/>
		</contour>
	</outline>
</glyph>
<glyph name="w" format="2">
	<unicode hex="0077"/>
	<advance width="857"/>
	<image fileName="b.png" xScale="2.580311745" yScale="2.580311745" xOffset="-5180.8366790108" yOffset="-580.570142633" color="0,0,0,0.24109"/>
	<outline>
		<contour>
			<point x="95" y="465.1638744749" type="curve" smooth="yes"/>
			<point x="157" y="371.1638744749"/>
			<point x="164" y="224.1638744749"/>
			<point x="216" y="141.1638744749" type="curve" smooth="yes"/>
			<point x="234" y="114.1638744749"/>
			<point x="174" y="111.1638744749"/>
			<point x="197" y="139.1638744749" type="curve" smooth="yes"/>
			<point x="241" y="191.1638744749"/>
			<point x="277" y="341.1638744749"/>
			<point x="317" y="418.1638744749" type="curve" smooth="yes"/>
			<point x="353" y="490.1638744749"/>
			<point x="375" y="516.1638744749"/>
			<point x="411" y="516.1638744749" type="curve" smooth="yes"/>
			<point x="467" y="516.1638744749"/>
			<point x="492" y="475.1638744749"/>
			<point x="544" y="375.1638744749" type="curve" smooth="yes"/>
			<point x="576" y="311.1638744749"/>
			<point x="617" y="193.1638744749"/>
			<point x="676" y="145.1638744749" type="curve" smooth="yes"/>
			<point x="720" y="110.1638744749"/>
			<point x="647" y="97.1638744749"/>
			<point x="670" y="140.1638744749" type="curve" smooth="yes"/>
			<point x="720" y="223.1638744749"/>
			<point x="717" y="345.1638744749"/>
			<point x="751" y="435.1638744749" type="curve" smooth="yes"/>
			<point x="771" y="484.1638744749"/>
			<point x="798" y="518.1638744749"/>
			<point x="842" y="518.1638744749" type="curve" smooth="yes"/>
			<point x="858" y="518.1638744749"/>
			<point x="872" y="509.1638744749"/>
			<point x="872" y="496.1638744749" type="curve" smooth="yes"/>
			<point x="872" y="481.1638744749"/>
			<point x="865" y="468.1638744749"/>
			<point x="845" y="457.1638744749" type="curve" smooth="yes"/>
			<point x="800" y="431.1638744749"/>
			<point x="789" y="313.1638744749"/>
			<point x="773" y="236.1638744749" type="curve" smooth="yes"/>
			<point x="747" y="113.1638744749"/>
			<point x="730" y="81.1638744749"/>
			<point x="680" y="81.1638744749" type="curve" smooth="yes"/>
			<point x="642" y="81.1638744749"/>
			<point x="625" y="99.1638744749"/>
			<point x="584" y="153.1638744749" type="curve" smooth="yes"/>
			<point x="520" y="241.1638744749"/>
			<point x="475" y="409.1638744749"/>
			<point x="407" y="463.1638744749" type="curve" smooth="yes"/>
			<point x="371" y="490.1638744749"/>
			<point x="443" y="485.1638744749"/>
			<point x="419" y="462.1638744749" type="curve" smooth="yes"/>
			<point x="362" y="408.1638744749"/>
			<point x="334" y="263.1638744749"/>
			<point x="274" y="145.1638744749" type="curve" smooth="yes"/>
			<point x="248" y="96.1638744749"/>
			<point x="241" y="79.1638744749"/>
			<point x="198" y="79.1638744749" type="curve" smooth="yes"/>
			<point x="166" y="79.1638744749"/>
			<point x="147" y="105.1638744749"/>
			<point x="124" y="179.1638744749" type="curve" smooth="yes"/>
			<point x="97" y="265.1638744749"/>
			<point x="78" y="391.1638744749"/>
			<point x="13" y="468.1638744749" type="curve" smooth="yes"/>
			<point x="-17" y="501.1638744749"/>
			<point x="-5" y="519.1638744749"/>
			<point x="26" y="519.1638744749" type="curve" smooth="yes"/>
			<point x="46" y="519.1638744749"/>
			<point x="63" y="515.1638744749"/>
		</contour>
	</outline>
</glyph>
<glyph name="x" format="2">
	<unicode hex="0078"/>
	<advance width="499"/>
	<image fileName="b.png" xScale="2.580311745" yScale="2.580311745" xOffset="-6195.2985653972" yOffset="-580.570142633" color="0,0,0,0.24109"/>
	<outline>
		<contour>
			<point x="436" y="527.1761189905" type="curve" smooth="yes"/>
			<point x="269.1900133008" y="428.202193549"/>
			<point x="163" y="249.1761189905"/>
			<point x="96" y="24.1761189905" type="curve" smooth="yes"/>
			<point x="88" y="-1.8238810095"/>
			<point x="75" y="-11.8238810095"/>
			<point x="64" y="-11.8238810095" type="curve" smooth="yes"/>
			<point x="51" y="-11.8238810095"/>
			<point x="34" y="-6.8238810095"/>
			<point x="34" y="22.1761189905" type="curve" smooth="yes"/>
			<point x="34" y="109.1761189905"/>
			<point x="136" y="366.1761189905"/>
			<point x="327" y="528.1761189905" type="curve" smooth="yes"/>
			<point x="399" y="589.1761189905"/>
			<point x="421" y="598.1761189905"/>
			<point x="444" y="598.1761189905" type="curve" smooth="yes"/>
			<point x="460" y="598.1761189905"/>
			<point x="470" y="589.1761189905"/>
			<point x="470" y="575.1761189905" type="curve" smooth="yes"/>
			<point x="470" y="559.1761189905"/>
			<point x="462" y="543.1761189905"/>
		</contour>
		<contour>
			<point x="203.6968997022" y="491.1029147929"/>
			<point x="347.1604166088" y="329.7624337265"/>
			<point x="402" y="253.1761189905" type="curve" smooth="yes"/>
			<point x="443" y="195.1761189905"/>
			<point x="449" y="168.1761189905"/>
			<point x="449" y="149.1761189905" type="curve" smooth="yes"/>
			<point x="449" y="138.1761189905"/>
			<point x="443" y="131.1761189905"/>
			<point x="433" y="131.1761189905" type="curve" smooth="yes"/>
			<point x="417" y="131.1761189905"/>
			<point x="395" y="141.1761189905"/>
			<point x="374" y="172.1761189905" type="curve" smooth="yes"/>
			<point x="293.1409015166" y="284.4275733557"/>
			<point x="174.2887619144" y="433.7265255364"/>
			<point x="89" y="506.1761189905" type="curve" smooth="yes"/>
			<point x="56" y="534.1761189905"/>
			<point x="36" y="553.1761189905"/>
			<point x="36" y="575.1761189905" type="curve" smooth="yes"/>
			<point x="36" y="586.1761189905"/>
			<point x="43" y="596.1761189905"/>
			<point x="60" y="596.1761189905" type="curve" smooth="yes"/>
			<point x="86" y="596.1761189905"/>
			<point x="103" y="585.1761189905"/>
			<point x="143" y="548.1761189905" type="curve" smooth="yes"/>
		</contour>
	</outline>
</glyph>
<glyph name="y" format="2">
	<unicode hex="0079"/>
	<advance width="563"/>
	<image fileName="b.png" xScale="2.580311745" yScale="2.580311745" xOffset="-6701.815296469" yOffset="-580.570142633" color="0,0,0,0.24109"/>
	<outline>
		<contour>
			<point x="139" y="567.7195744969" type="curve" smooth="yes"/>
			<point x="143" y="629.7195744969"/>
			<point x="132" y="643.7195744969"/>
			<point x="113" y="643.7195744969" type="curve" smooth="yes"/>
			<point x="88" y="643.7195744969"/>
			<point x="68" y="618.8213709041"/>
			<point x="68" y="489.7195744969" type="curve" smooth="yes"/>
			<point x="68" y="298.167850359"/>
			<point x="132" y="214.7195744969"/>
			<point x="236" y="214.7195744969" type="curve" smooth="yes"/>
			<point x="306" y="214.7195744969"/>
			<point x="384" y="269.7195744969"/>
			<point x="423" y="445.7195744969" type="curve" smooth="yes"/>
			<point x="430" y="482.7195744969"/>
			<point x="393.9942274747" y="482.7907689755"/>
			<point x="397" y="445.7195744969" type="curve" smooth="yes"/>
			<point x="400" y="273.7195744969"/>
			<point x="418" y="212.7195744969"/>
			<point x="418" y="141.7195744969" type="curve" smooth="yes"/>
			<point x="418" y="28.8837536014"/>
			<point x="386" y="-47.2804255031"/>
			<point x="281" y="-47.2804255031" type="curve" smooth="yes"/>
			<point x="178.7" y="-47.2804255031"/>
			<point x="168.8" y="-17.2804255031"/>
			<point x="138" y="-17.2804255031" type="curve" smooth="yes"/>
			<point x="117" y="-17.2804255031"/>
			<point x="108" y="-28.2804255031"/>
			<point x="108" y="-44.2804255031" type="curve" smooth="yes"/>
			<point x="108" y="-89.7804255031"/>
			<point x="179.2962962963" y="-114.2804255031"/>
			<point x="283" y="-114.2804255031" type="curve" smooth="yes"/>
			<point x="401" y="-114.2804255031"/>
			<point x="485" y="-40.2804255031"/>
			<point x="485" y="141.7195744969" type="curve" smooth="yes"/>
			<point x="485" y="333.7195744969"/>
			<point x="445" y="377.7195744969"/>
			<point x="462" y="546.7195744969" type="curve" smooth="yes"/>
			<point x="469.9019884861" y="623.1054631957"/>
			<point x="444.8095238095" y="642.7195744969"/>
			<point x="424" y="642.7195744969" type="curve" smooth="yes"/>
			<point x="404.28" y="642.7195744969"/>
			<point x="399.0020266342" y="635.7383208631"/>
			<point x="395" y="598.7195744969" type="curve" smooth="yes"/>
			<point x="376.1581703624" y="416.8959184944"/>
			<point x="321" y="279.7195744969"/>
			<point x="232" y="279.7195744969" type="curve" smooth="yes"/>
			<point x="160" y="279.7195744969"/>
			<point x="128.4575118663" y="396.4041423249"/>
		</contour>
	</outline>
</glyph>
<glyph name="z" format="2">
	<unicode hex="007A"/>
	<advance width="603"/>
	<image fileName="b.png" xScale="2.580311745" yScale="2.580311745" xOffset="-7272.5472265012" yOffset="-580.570142633" color="0,0,0,0.24109"/>
	<outline>
		<contour>
			<point x="106" y="426.130739566" type="curve" smooth="yes"/>
			<point x="166" y="445.130739566"/>
			<point x="249" y="460.130739566"/>
			<point x="315" y="460.130739566" type="curve" smooth="yes"/>
			<point x="474.6767676768" y="460.130739566"/>
			<point x="523" y="402.130739566"/>
			<point x="523" y="344.130739566" type="curve" smooth="yes"/>
			<point x="523" y="251.9521681374"/>
			<point x="421.9528255992" y="126.9945547928"/>
			<point x="103" y="-11.869260434" type="curve"/>
			<point x="113" y="8.130739566" type="line"/>
			<point x="135.4538728728" y="-37.6086311008"/>
			<point x="164.3333333333" y="-39.869260434"/>
			<point x="223" y="-39.869260434" type="curve" smooth="yes"/>
			<point x="302.0128755365" y="-39.869260434"/>
			<point x="401.3433476395" y="-27.869260434"/>
			<point x="486" y="-27.869260434" type="curve" smooth="yes"/>
			<point x="533" y="-27.869260434"/>
			<point x="564" y="-43.869260434"/>
			<point x="564" y="-65.869260434" type="curve" smooth="yes"/>
			<point x="564" y="-81.869260434"/>
			<point x="550" y="-95.869260434"/>
			<point x="528" y="-95.869260434" type="curve" smooth="yes"/>
			<point x="442.8947368421" y="-95.869260434"/>
			<point x="313.5789473684" y="-105.869260434"/>
			<point x="213" y="-105.869260434" type="curve" smooth="yes"/>
			<point x="90.6043165468" y="-105.869260434"/>
			<point x="54" y="-51.5249981389"/>
			<point x="54" y="-3.869260434" type="curve" smooth="yes"/>
			<point x="54" y="20.130739566"/>
			<point x="64" y="44.130739566"/>
			<point x="97" y="58.130739566" type="curve" smooth="yes"/>
			<point x="333.2073788935" y="160.3041639246"/>
			<point x="472.7398702837" y="273.8754726217"/>
			<point x="461" y="373.130739566" type="curve"/>
			<point x="478" y="326.130739566" type="line"/>
			<point x="442.8630992232" y="377.9576682117"/>
			<point x="403.9635036496" y="394.130739566"/>
			<point x="331" y="394.130739566" type="curve" smooth="yes"/>
			<point x="217" y="394.130739566"/>
			<point x="148" y="360.130739566"/>
			<point x="108" y="360.130739566" type="curve" smooth="yes"/>
			<point x="95" y="360.130739566"/>
			<point x="81" y="377.130739566"/>
			<point x="81" y="396.130739566" type="curve" smooth="yes"/>
			<point x="81" y="413.130739566"/>
			<point x="87" y="420.130739566"/>
		</contour>
	</outline>
</glyph>
<glyph name="copyright" format="2">
	<unicode hex="00A9"/>
	<advance width="929"/>
	<outline>
		<contour>
			<point x="321" y="437.7845822869" type="curve" smooth="yes"/>
			<point x="202.7239495554" y="365.7101140472"/>
			<point x="152" y="244.7845822869"/>
			<point x="152" y="119.7845822869" type="curve" smooth="yes"/>
			<point x="152" y="-18.2154177131"/>
			<point x="245.3962264151" y="-135.2154177131"/>
			<point x="427" y="-135.2154177131" type="curve" smooth="yes"/>
			<point x="661.6411609499" y="-135.2154177131"/>
			<point x="796" y="-0.2154177131"/>
			<point x="796" y="234.7845822869" type="curve" smooth="yes"/>
			<point x="796" y="408.7845822869"/>
			<point x="714" y="517.7845822869"/>
			<point x="512" y="516.7845822869" type="curve" smooth="yes"/>
			<point x="351" y="515.7845822869"/>
			<point x="286" y="454.7845822869"/>
			<point x="211" y="394.7845822869" type="curve" smooth="yes"/>
			<point x="199" y="385.7845822869"/>
			<point x="188" y="379.7845822869"/>
			<point x="177" y="379.7845822869" type="curve" smooth="yes"/>
			<point x="161" y="379.7845822869"/>
			<point x="156" y="387.7845822869"/>
			<point x="156" y="405.7845822869" type="curve" smooth="yes"/>
			<point x="156" y="462.7845822869"/>
			<point x="293" y="579.7845822869"/>
			<point x="503" y="579.7845822869" type="curve" smooth="yes"/>
			<point x="752" y="579.7845822869"/>
			<point x="864" y="446.7845822869"/>
			<point x="864" y="243.7845822869" type="curve" smooth="yes"/>
			<point x="864" y="-52.2154177131"/>
			<point x="669.5852534562" y="-198.2154177131"/>
			<point x="440" y="-198.2154177131" type="curve" smooth="yes"/>
			<point x="236.2608695652" y="-198.2154177131"/>
			<point x="85" y="-103.2154177131"/>
			<point x="85" y="118.7845822869" type="curve" smooth="yes"/>
			<point x="85" y="366.7845822869"/>
			<point x="279" y="516.7845822869"/>
			<point x="354" y="516.7845822869" type="curve" smooth="yes"/>
			<point x="369" y="516.7845822869"/>
			<point x="376" y="512.7845822869"/>
			<point x="376" y="497.7845822869" type="curve" smooth="yes"/>
			<point x="376" y="477.7845822869"/>
			<point x="362" y="462.7845822869"/>
		</contour>
		<contour>
			<point x="466" y="-25.2154177131" type="curve" smooth="yes"/>
			<point x="580.2790697674" y="-25.2154177131"/>
			<point x="634" y="40.6098250053"/>
			<point x="634" y="87.7845822869" type="curve" smooth="yes"/>
			<point x="634" y="102.7845822869"/>
			<point x="627" y="113.7845822869"/>
			<point x="617" y="113.7845822869" type="curve" smooth="yes"/>
			<point x="594.5974025974" y="113.7845822869"/>
			<point x="576" y="38.7845822869"/>
			<point x="467" y="38.7845822869" type="curve" smooth="yes"/>
			<point x="391" y="38.7845822869"/>
			<point x="343" y="77.7845822869"/>
			<point x="343" y="148.7845822869" type="curve" smooth="yes"/>
			<point x="343" y="244.7845822869"/>
			<point x="414" y="339.7845822869"/>
			<point x="513" y="339.7845822869" type="curve" smooth="yes"/>
			<point x="569" y="339.7845822869"/>
			<point x="578" y="314.7845822869"/>
			<point x="578" y="284.7845822869" type="curve" smooth="yes"/>
			<point x="578" y="256.7845822869"/>
			<point x="582" y="246.7845822869"/>
			<point x="596" y="246.7845822869" type="curve" smooth="yes"/>
			<point x="623" y="246.7845822869"/>
			<point x="635" y="272.7845822869"/>
			<point x="635" y="301.7845822869" type="curve" smooth="yes"/>
			<point x="635" y="360.7845822869"/>
			<point x="602" y="402.7845822869"/>
			<point x="523" y="402.7845822869" type="curve" smooth="yes"/>
			<point x="384" y="402.7845822869"/>
			<point x="276" y="280.7845822869"/>
			<point x="276" y="151.7845822869" type="curve" smooth="yes"/>
			<point x="276" y="50.7845822869"/>
			<point x="335" y="-25.2154177131"/>
		</contour>
	</outline>
</glyph>
<glyph name="emdash" format="2">
	<unicode hex="2014"/>
	<advance width="1000"/>
	<outline>
		<contour>
			<point x="118" y="145.2413564469" type="curve" smooth="yes"/>
			<point x="227.2268907563" y="145.2413564469"/>
			<point x="403.2941176471" y="155.2413564469"/>
			<point x="894" y="155.2413564469" type="curve" smooth="yes"/>
			<point x="926" y="155.2413564469"/>
			<point x="945" y="166.2413564469"/>
			<point x="945" y="184.2413564469" type="curve" smooth="yes"/>
			<point x="945" y="197.2413564469"/>
			<point x="923" y="218.2413564469"/>
			<point x="861" y="218.2413564469" type="curve" smooth="yes"/>
			<point x="601.3670886076" y="218.2413564469"/>
			<point x="357" y="215.2413564469"/>
			<point x="87" y="204.2413564469" type="curve" smooth="yes"/>
			<point x="62" y="203.2413564469"/>
			<point x="55" y="186.2413564469"/>
			<point x="55" y="175.2413564469" type="curve" smooth="yes"/>
			<point x="55" y="160.2413564469"/>
			<point x="77" y="145.2413564469"/>
		</contour>
	</outline>
</glyph>
<glyph name="quotedblleft" format="2">
	<unicode hex="201C"/>
	<advance width="411"/>
	<image fileName="quoteleft.png" xScale="2.7154088417" yScale="2.7154088417" xOffset="-110.4273808669" yOffset="-445.4316255776" color="0,0,0,0.31832"/>
	<outline>
		<contour>
			<point x="203" y="734.3887179795" type="curve" smooth="yes"/>
			<point x="185" y="734.3887179795"/>
			<point x="172" y="728.3887179795"/>
			<point x="143" y="691.3887179795" type="curve" smooth="yes"/>
			<point x="87" y="619.3887179795"/>
			<point x="50" y="526.3887179795"/>
			<point x="50" y="452.3887179795" type="curve" smooth="yes"/>
			<point x="50" y="414.3887179795"/>
			<point x="67" y="380.3887179795"/>
			<point x="92" y="380.3887179795" type="curve" smooth="yes"/>
			<point x="111" y="380.3887179795"/>
			<point x="121" y="394.3887179795"/>
			<point x="133" y="449.3887179795" type="curve" smooth="yes"/>
			<point x="145" y="505.3887179795"/>
			<point x="166" y="571.3887179795"/>
			<point x="222" y="638.3887179795" type="curve" smooth="yes"/>
			<point x="243" y="663.3887179795"/>
			<point x="246" y="671.3887179795"/>
			<point x="246" y="680.3887179795" type="curve" smooth="yes"/>
			<point x="247" y="704.3887179795"/>
			<point x="231" y="734.3887179795"/>
		</contour>
		<contour>
			<point x="341" y="644.3887179795" type="curve" smooth="yes"/>
			<point x="323" y="644.3887179795"/>
			<point x="310" y="638.3887179795"/>
			<point x="283" y="601.3887179795" type="curve" smooth="yes"/>
			<point x="243" y="546.3887179795"/>
			<point x="220" y="466.0749104481"/>
			<point x="220" y="405.3887179795" type="curve" smooth="yes"/>
			<point x="220" y="367.3887179795"/>
			<point x="237" y="333.3887179795"/>
			<point x="262" y="333.3887179795" type="curve" smooth="yes"/>
			<point x="281" y="333.3887179795"/>
			<point x="291" y="347.3887179795"/>
			<point x="303" y="402.3887179795" type="curve" smooth="yes"/>
			<point x="312.2184359167" y="445.4080855909"/>
			<point x="323" y="495.3887179795"/>
			<point x="363" y="546.3887179795" type="curve" smooth="yes"/>
			<point x="384" y="575.3887179795"/>
			<point x="386" y="585.3172894081"/>
			<point x="386" y="595.3887179795" type="curve" smooth="yes"/>
			<point x="386.907650909" y="617.1723397953"/>
			<point x="370.3023255814" y="644.3887179795"/>
		</contour>
	</outline>
</glyph>
<glyph name="quotedblright" format="2">
	<unicode hex="201D"/>
	<advance width="435"/>
	<outline>
		<contour>
			<point x="190" y="750.6874053747" type="curve" smooth="yes"/>
			<point x="171" y="750.6874053747"/>
			<point x="160" y="742.6874053747"/>
			<point x="136" y="698.6874053747" type="curve" smooth="yes"/>
			<point x="91" y="616.6874053747"/>
			<point x="55" y="500.6874053747"/>
			<point x="55" y="422.6874053747" type="curve" smooth="yes"/>
			<point x="55" y="379.6874053747"/>
			<point x="72" y="353.6874053747"/>
			<point x="97" y="353.6874053747" type="curve" smooth="yes"/>
			<point x="116" y="353.6874053747"/>
			<point x="125" y="365.6874053747"/>
			<point x="135" y="412.6874053747" type="curve" smooth="yes"/>
			<point x="148" y="472.6874053747"/>
			<point x="152" y="538.6874053747"/>
			<point x="208" y="628.6874053747" type="curve" smooth="yes"/>
			<point x="237" y="675.6874053747"/>
			<point x="240" y="686.6874053747"/>
			<point x="240" y="699.6874053747" type="curve" smooth="yes"/>
			<point x="240" y="722.6874053747"/>
			<point x="213" y="750.6874053747"/>
		</contour>
		<contour>
			<point x="370" y="690.6874053747" type="curve" smooth="yes"/>
			<point x="351" y="690.6874053747"/>
			<point x="340" y="682.6874053747"/>
			<point x="316" y="638.6874053747" type="curve" smooth="yes"/>
			<point x="281.6401851185" y="576.0761871461"/>
			<point x="255" y="490.904796679"/>
			<point x="255" y="432.6874053747" type="curve" smooth="yes"/>
			<point x="255" y="389.6874053747"/>
			<point x="272" y="363.6874053747"/>
			<point x="297" y="363.6874053747" type="curve" smooth="yes"/>
			<point x="316" y="363.6874053747"/>
			<point x="325" y="375.6874053747"/>
			<point x="335" y="422.6874053747" type="curve" smooth="yes"/>
			<point x="343.8854952264" y="463.6973833425"/>
			<point x="348.0059341639" y="504.4112281382"/>
			<point x="388" y="568.6874053747" type="curve" smooth="yes"/>
			<point x="417" y="615.6874053747"/>
			<point x="420" y="626.6874053747"/>
			<point x="420" y="639.6874053747" type="curve" smooth="yes"/>
			<point x="420" y="662.6874053747"/>
			<point x="393" y="690.6874053747"/>
		</contour>
	</outline>
</glyph>
<glyph name="dagger" format="2">
	<unicode hex="2020"/>
	<advance width="538"/>
	<outline>
		<contour>
			<point x="317" y="595.5892632143" type="curve" smooth="yes"/>
			<point x="317" y="485.5892632143"/>
			<point x="305" y="354.5892632143"/>
			<point x="305" y="149.5892632143" type="curve" smooth="yes"/>
			<point x="305" y="-106.4107367857"/>
			<point x="320" y="-139.4107367857"/>
			<point x="320" y="-272.4107367857" type="curve" smooth="yes"/>
			<point x="320" y="-307.4107367857"/>
			<point x="302" y="-317.4107367857"/>
			<point x="289" y="-317.4107367857" type="curve" smooth="yes"/>
			<point x="274" y="-317.4107367857"/>
			<point x="262" y="-303.4107367857"/>
			<point x="259" y="-281.4107367857" type="curve" smooth="yes"/>
			<point x="234" y="-98.4107367857"/>
			<point x="237" y="19.5892632143"/>
			<point x="237" y="163.5892632143" type="curve" smooth="yes"/>
			<point x="237" y="363.5892632143"/>
			<point x="249" y="512.5892632143"/>
			<point x="249" y="617.5892632143" type="curve" smooth="yes"/>
			<point x="249" y="636.5892632143"/>
			<point x="259" y="654.5892632143"/>
			<point x="277" y="654.5892632143" type="curve" smooth="yes"/>
			<point x="297" y="654.5892632143"/>
			<point x="317" y="633.5892632143"/>
		</contour>
		<contour>
			<point x="86" y="329.5892632143" type="curve" smooth="yes"/>
			<point x="57" y="321.5892632143"/>
			<point x="41" y="337.5892632143"/>
			<point x="41" y="356.5892632143" type="curve" smooth="yes"/>
			<point x="42" y="380.5892632143"/>
			<point x="50" y="395.5892632143"/>
			<point x="102" y="403.5892632143" type="curve" smooth="yes"/>
			<point x="216" y="423.5892632143"/>
			<point x="354" y="437.5892632143"/>
			<point x="462" y="437.5892632143" type="curve" smooth="yes"/>
			<point x="488" y="437.5892632143"/>
			<point x="509" y="421.5892632143"/>
			<point x="509" y="402.5892632143" type="curve" smooth="yes"/>
			<point x="509" y="383.5892632143"/>
			<point x="499" y="376.5892632143"/>
			<point x="474" y="374.5892632143" type="curve" smooth="yes"/>
			<point x="299" y="360.5892632143"/>
			<point x="197" y="354.5892632143"/>
		</contour>
	</outline>
</glyph>
<glyph name="minute" format="2">
	<unicode hex="2032"/>
	<advance width="259"/>
	<outline>
		<contour>
			<point x="107" y="271.2567823193" type="curve" smooth="yes"/>
			<point x="124" y="271.2567823193"/>
			<point x="135" y="281.2567823193"/>
			<point x="147" y="305.2567823193" type="curve" smooth="yes"/>
			<point x="173" y="361.2567823193"/>
			<point x="190" y="448.2567823193"/>
			<point x="190" y="507.2567823193" type="curve" smooth="yes"/>
			<point x="190" y="550.2567823193"/>
			<point x="170" y="563.2567823193"/>
			<point x="149" y="563.2567823193" type="curve" smooth="yes"/>
			<point x="128" y="563.2567823193"/>
			<point x="118" y="550.2567823193"/>
			<point x="118" y="521.2567823193" type="curve" smooth="yes"/>
			<point x="118" y="353.2567823193"/>
			<point x="83" y="337.2567823193"/>
			<point x="83" y="295.2567823193" type="curve" smooth="yes"/>
			<point x="83" y="278.2567823193"/>
			<point x="94" y="271.2567823193"/>
		</contour>
	</outline>
</glyph>
<glyph name="second" format="2">
	<unicode hex="2033"/>
	<advance width="419"/>
	<outline>
		<contour>
			<point x="79" y="608.9630901257" type="curve" smooth="yes"/>
			<point x="96" y="608.9630901257"/>
			<point x="107" y="618.9630901257"/>
			<point x="119" y="642.9630901257" type="curve" smooth="yes"/>
			<point x="145" y="698.9630901257"/>
			<point x="162" y="785.9630901257"/>
			<point x="162" y="844.9630901257" type="curve" smooth="yes"/>
			<point x="162" y="887.9630901257"/>
			<point x="142" y="900.9630901257"/>
			<point x="121" y="900.9630901257" type="curve" smooth="yes"/>
			<point x="100" y="900.9630901257"/>
			<point x="90" y="887.9630901257"/>
			<point x="90" y="858.9630901257" type="curve" smooth="yes"/>
			<point x="90" y="690.9630901257"/>
			<point x="55" y="674.9630901257"/>
			<point x="55" y="632.9630901257" type="curve" smooth="yes"/>
			<point x="55" y="615.9630901257"/>
			<point x="66" y="608.9630901257"/>
		</contour>
		<contour>
			<point x="287" y="608.9630901257" type="curve" smooth="yes"/>
			<point x="304" y="608.9630901257"/>
			<point x="315" y="618.9630901257"/>
			<point x="327" y="642.9630901257" type="curve" smooth="yes"/>
			<point x="353" y="698.9630901257"/>
			<point x="370" y="785.9630901257"/>
			<point x="370" y="844.9630901257" type="curve" smooth="yes"/>
			<point x="370" y="887.9630901257"/>
			<point x="350" y="900.9630901257"/>
			<point x="329" y="900.9630901257" type="curve" smooth="yes"/>
			<point x="308" y="900.9630901257"/>
			<point x="298" y="887.9630901257"/>
			<point x="298" y="858.9630901257" type="curve" smooth="yes"/>
			<point x="298" y="690.9630901257"/>
			<point x="263" y="674.9630901257"/>
			<point x="263" y="632.9630901257" type="curve" smooth="yes"/>
			<point x="263" y="615.9630901257"/>
			<point x="274" y="608.9630901257"/>
		</contour>
	</outline>
</glyph>
<glyph name="trademark" format="2">
	<unicode hex="2122"/>
	<advance width="950"/>
	<outline>
		<contour>
			<point x="167" y="548.2270969838" type="curve" smooth="yes"/>
			<point x="153" y="386.2270969838"/>
			<point x="157" y="305.2270969838"/>
			<point x="166" y="252.2270969838" type="curve" smooth="yes"/>
			<point x="174" y="207.2270969838"/>
			<point x="191" y="195.2270969838"/>
			<point x="209" y="195.2270969838" type="curve" smooth="yes"/>
			<point x="224" y="195.2270969838"/>
			<point x="232" y="200.2270969838"/>
			<point x="232" y="217.2270969838" type="curve" smooth="yes"/>
			<point x="232" y="241.2270969838"/>
			<point x="210" y="298.2270969838"/>
			<point x="225" y="510.2270969838" type="curve" smooth="yes"/>
			<point x="228" y="561.2270969838"/>
			<point x="220" y="579.2270969838"/>
			<point x="192" y="579.2270969838" type="curve" smooth="yes"/>
			<point x="178" y="579.2270969838"/>
			<point x="168" y="567.2270969838"/>
		</contour>
		<contour>
			<point x="86" y="553.2270969838" type="curve" smooth="yes"/>
			<point x="158.5526962352" y="549.1396211396"/>
			<point x="208.3414634146" y="545.2270969838"/>
			<point x="295" y="545.2270969838" type="curve" smooth="yes"/>
			<point x="330.0526315789" y="545.2270969838"/>
			<point x="367" y="560.2270969838"/>
			<point x="367" y="590.2270969838" type="curve" smooth="yes"/>
			<point x="367" y="603.2270969838"/>
			<point x="360" y="612.2270969838"/>
			<point x="344" y="612.2270969838" type="curve" smooth="yes"/>
			<point x="316.3033707865" y="612.2270969838"/>
			<point x="303.8876404494" y="603.2270969838"/>
			<point x="259" y="603.2270969838" type="curve" smooth="yes"/>
			<point x="186.58" y="603.2270969838"/>
			<point x="141.7" y="610.2270969838"/>
			<point x="55" y="610.2270969838" type="curve" smooth="yes"/>
			<point x="34.84" y="610.2270969838"/>
			<point x="27" y="600.5428864575"/>
			<point x="27" y="587.2270969838" type="curve" smooth="yes"/>
			<point x="27" y="568.4376232996"/>
			<point x="37.548462456" y="555.3336855727"/>
		</contour>
		<contour>
			<point x="791" y="543.2270969838" type="curve"/>
			<point x="810" y="535.2270969838" type="line"/>
			<point x="771" y="487.2270969838"/>
			<point x="763" y="351.2270969838"/>
			<point x="703" y="220.2270969838" type="curve" smooth="yes"/>
			<point x="696" y="204.2270969838"/>
			<point x="687" y="197.2270969838"/>
			<point x="673" y="197.2270969838" type="curve" smooth="yes"/>
			<point x="662" y="197.2270969838"/>
			<point x="650" y="203.2270969838"/>
			<point x="641" y="218.2270969838" type="curve" smooth="yes"/>
			<point x="616" y="256.2270969838"/>
			<point x="603" y="328.2270969838"/>
			<point x="593" y="403.2270969838" type="curve" smooth="yes"/>
			<point x="586" y="456.2270969838"/>
			<point x="577" y="498.2270969838"/>
			<point x="563" y="537.2270969838" type="curve"/>
			<point x="568" y="537.2270969838" type="line"/>
			<point x="537" y="471.2270969838"/>
			<point x="514" y="356.2270969838"/>
			<point x="514" y="219.2270969838" type="curve" smooth="yes"/>
			<point x="514" y="203.2270969838"/>
			<point x="504" y="195.2270969838"/>
			<point x="494" y="195.2270969838" type="curve" smooth="yes"/>
			<point x="463" y="195.2270969838"/>
			<point x="450" y="230.2270969838"/>
			<point x="450" y="301.2270969838" type="curve" smooth="yes"/>
			<point x="450" y="359.2270969838"/>
			<point x="456" y="402.2270969838"/>
			<point x="456" y="446.2270969838" type="curve" smooth="yes"/>
			<point x="456" y="533.2270969838"/>
			<point x="434" y="560.2270969838"/>
			<point x="434" y="586.2270969838" type="curve" smooth="yes"/>
			<point x="434" y="596.2270969838"/>
			<point x="440" y="604.2270969838"/>
			<point x="453" y="604.2270969838" type="curve" smooth="yes"/>
			<point x="489" y="604.2270969838"/>
			<point x="510" y="550.2270969838"/>
			<point x="512" y="489.2270969838" type="curve"/>
			<point x="502" y="485.2270969838" type="line"/>
			<point x="516" y="568.2270969838"/>
			<point x="540" y="611.2270969838"/>
			<point x="572" y="611.2270969838" type="curve" smooth="yes"/>
			<point x="614" y="611.2270969838"/>
			<point x="635" y="535.2270969838"/>
			<point x="655" y="379.2270969838" type="curve" smooth="yes"/>
			<point x="659" y="350.2270969838"/>
			<point x="663" y="311.2270969838"/>
			<point x="680" y="271.2270969838" type="curve"/>
			<point x="664" y="281.2270969838" type="line"/>
			<point x="699" y="347.2270969838"/>
			<point x="716" y="464.2270969838"/>
			<point x="740" y="527.2270969838" type="curve" smooth="yes"/>
			<point x="760" y="581.2270969838"/>
			<point x="779" y="610.2270969838"/>
			<point x="806" y="610.2270969838" type="curve" smooth="yes"/>
			<point x="833" y="610.2270969838"/>
			<point x="871" y="589.2270969838"/>
			<point x="876" y="464.2270969838" type="curve" smooth="yes"/>
			<point x="879" y="389.2270969838"/>
			<point x="893" y="303.2270969838"/>
			<point x="917" y="237.2270969838" type="curve" smooth="yes"/>
			<point x="925" y="213.2270969838"/>
			<point x="918" y="197.2270969838"/>
			<point x="899" y="197.2270969838" type="curve" smooth="yes"/>
			<point x="881" y="197.2270969838"/>
			<point x="866" y="207.2270969838"/>
			<point x="851" y="240.2270969838" type="curve" smooth="yes"/>
			<point x="829" y="286.2270969838"/>
			<point x="819" y="379.2270969838"/>
			<point x="815" y="446.2270969838" type="curve" smooth="yes"/>
			<point x="813" y="491.2270969838"/>
			<point x="806" y="518.2270969838"/>
		</contour>
	</outline>
</glyph>
<glyph name="at.case" format="2">
	<advance width="848"/>
	<outline>
		<contour>
			<point x="498" y="562.1606150568" type="curve" smooth="yes"/>
			<point x="397" y="552.1606150568"/>
			<point x="346" y="496.1606150568"/>
			<point x="346" y="440.1606150568" type="curve" smooth="yes"/>
			<point x="346" y="425.1606150568"/>
			<point x="346" y="409.1606150568"/>
			<point x="363" y="369.1606150568" type="curve"/>
			<point x="325" y="412.1606150568" type="line"/>
			<point x="361" y="391.1606150568"/>
			<point x="375" y="388.1606150568"/>
			<point x="387" y="388.1606150568" type="curve" smooth="yes"/>
			<point x="417" y="388.1606150568"/>
			<point x="431" y="404.1606150568"/>
			<point x="449" y="449.1606150568" type="curve" smooth="yes"/>
			<point x="476" y="519.1606150568"/>
			<point x="498" y="530.1606150568"/>
			<point x="526" y="530.1606150568" type="curve" smooth="yes"/>
			<point x="555" y="530.1606150568"/>
			<point x="582" y="518.1606150568"/>
			<point x="607" y="464.1606150568" type="curve" smooth="yes"/>
			<point x="635" y="404.1606150568"/>
			<point x="638" y="401.1606150568"/>
			<point x="657" y="401.1606150568" type="curve" smooth="yes"/>
			<point x="698" y="401.1606150568"/>
			<point x="710" y="462.1606150568"/>
			<point x="710" y="511.1606150568" type="curve" smooth="yes"/>
			<point x="710" y="621.1606150568"/>
			<point x="647" y="773.1606150568"/>
			<point x="459" y="773.1606150568" type="curve" smooth="yes"/>
			<point x="294" y="773.1606150568"/>
			<point x="138" y="613.1606150568"/>
			<point x="138" y="452.1606150568" type="curve" smooth="yes"/>
			<point x="138" y="273.1606150568"/>
			<point x="287" y="187.1606150568"/>
			<point x="447" y="187.1606150568" type="curve" smooth="yes"/>
			<point x="637" y="187.1606150568"/>
			<point x="648" y="242.1606150568"/>
			<point x="684" y="242.1606150568" type="curve" smooth="yes"/>
			<point x="703" y="242.1606150568"/>
			<point x="711" y="229.1606150568"/>
			<point x="711" y="209.1606150568" type="curve" smooth="yes"/>
			<point x="711" y="194.1606150568"/>
			<point x="704" y="181.1606150568"/>
			<point x="685" y="167.1606150568" type="curve" smooth="yes"/>
			<point x="646" y="138.1606150568"/>
			<point x="582" y="119.1606150568"/>
			<point x="447" y="119.1606150568" type="curve" smooth="yes"/>
			<point x="245" y="119.1606150568"/>
			<point x="70" y="233.1606150568"/>
			<point x="70" y="452.1606150568" type="curve"/>
			<point x="70" y="647.1606150568"/>
			<point x="258" y="841.1606150568"/>
			<point x="459" y="841.1606150568" type="curve" smooth="yes"/>
			<point x="693" y="841.1606150568"/>
			<point x="778" y="651.1606150568"/>
			<point x="778" y="511.1606150568" type="curve" smooth="yes"/>
			<point x="778" y="380.1606150568"/>
			<point x="715" y="333.1606150568"/>
			<point x="657" y="333.1606150568" type="curve" smooth="yes"/>
			<point x="547" y="333.1606150568"/>
			<point x="570" y="452.1606150568"/>
			<point x="510" y="477.1606150568" type="curve"/>
			<point x="535" y="477.1606150568" type="line"/>
			<point x="499" y="440.1606150568"/>
			<point x="494" y="322.1606150568"/>
			<point x="389" y="322.1606150568" type="curve" smooth="yes"/>
			<point x="331" y="322.1606150568"/>
			<point x="278" y="359.1606150568"/>
			<point x="278" y="440.1606150568" type="curve" smooth="yes"/>
			<point x="278" y="545.1606150568"/>
			<point x="390" y="630.1606150568"/>
			<point x="495" y="630.1606150568" type="curve" smooth="yes"/>
			<point x="516" y="630.1606150568"/>
			<point x="529" y="618.1606150568"/>
			<point x="529" y="599.1606150568" type="curve" smooth="yes"/>
			<point x="529" y="579.1606150568"/>
			<point x="517" y="564.1606150568"/>
		</contour>
	</outline>
</glyph>
